<svg fill="none" height="56" viewBox="0 0 504 56" width="504" xmlns="http://www.w3.org/2000/svg"><path d="m11.3999 16.1199c0-1.0609.4214-2.0783 1.1716-2.8285.7501-.7501 1.7675-1.1715 2.8284-1.1715l28.1-.07c.5338-.0028 1.0627.1013 1.5556.3061s.9399.5062 1.3145.8864.6694.8316.8669 1.3275c.1974.4959.2937 1.0263.283 1.56l-.46 23.6c-.0177 1.0316-.4334 2.0164-1.1602 2.7488-.7267.7323-1.7084 1.1555-2.7398 1.1812l-27.65.73c-.5336.0133-1.0646-.0803-1.5615-.2753-.4969-.1951-.9497-.4876-1.3318-.8604-.3821-.3727-.6857-.8182-.8929-1.3102-.2073-.4919-.314-1.0203-.3138-1.5541v-24.27z" fill="#b8ddf0"/><path d="m30.23 35.07c4.4-5.36 9.77-13.65 9.77-13.65s-4.32-1.45-4.83-1.42c-6.84.43-14.38 4.29-16.17 12.15 0 0 3.9 5.85 5.86 5.85 1.95 0 5.37-2.93 5.37-2.93z" fill="#fff"/><path d="m15.95 10.8501c-1.25 0-2.5.05-3.75.05-1 0-2.1.15-3.10001.1-1.1-.05-1.55-.75-.5-1.5 1.85001-1.3 1.4 2.6 1.4 3.65.05001 1.75.05001 3.55.15001 5.3.05 1.6 2.55 1.6 2.5 0l-.15-5.65c-.05-1.35.25-3.25-.4-4.5-1-1.9-3.55001-2.1-5.10001-.75-1.6 1.35-2.35 4.15-.3 5.4 1.35.8 3.15.5 4.60001.45 1.55-.05 3.05-.05 4.6-.05 1.65 0 1.65-2.5.05-2.5zm25.05 2.25c3.05 0 6.45.05 9.45-.75 2.15-.6 3.2-3.1 1.7-4.95-.3508-.40961-.7919-.7321-1.2887-.94202-.4967-.20992-1.0354-.30153-1.5736-.26759s-1.0612.1925-1.5276.46316-.8636.64602-1.1601 1.09645c-.9 1.4-.7 3.1-.7 4.65 0 1.85-.05 3.7-.05 5.55 0 1.6 2.5 1.6 2.5 0v-4.85c0-.85-.2-1.95 0-2.75.05-1.25.5-1.85 1.4-1.65.65.65.7 1.05.15 1.15-.6.7-3.4.5-4.25.6-1.55.1-3.15.15-4.7.15s-1.55 2.5.05 2.5zm-28.65 12.95v-.15h-2.5v6.8h2.5v-1.35h-2.5v1.15c0 1.6 2.5 1.6 2.5 0v-1.15c0-1.6-2.5-1.6-2.5 0v1.35c0 1.6 2.5 1.6 2.5 0v-6.8c0-1.6-2.5-1.6-2.5 0v.15c0 1.6 2.5 1.6 2.5 0zm12.85-12.42c2.1-.1 4.2-.15 6.3-.1 1.6.05 1.6-2.45 0-2.5-2.1-.05-4.2-.05-6.3.1-1.6.1-1.6 2.6 0 2.5zm20.7 11.52v6.6h2.5v-2.6c0-1.6-2.5-1.6-2.5 0v2.6c0 1.6 2.5 1.6 2.5 0v-6.6c0-1.6-2.5-1.6-2.5 0zm-36.10001 15c.05.85.05 1.7.1 2.6.05 1 .45001 3.35-.04999 4.25-.8 1.35-2.00001-.6-1.00001-1.25.45-.3 1.65001-.05 2.25001-.05 1.6.05 3.2 0 4.8-.05s1.6-2.55 0-2.5c-1.85.05-3.65 0-5.45 0-1.15001 0-2.35001 0-3.35001.7-1.9 1.35-1.4 4.1.25 5.4 1.75 1.4 4.20001.9 4.90001-1.35.75-2.4.25-5.3.15-7.8-.15-1.55-2.65001-1.55-2.60001.05zm14.95001 5.3c2.65-.1 5.25-.05 7.9-.15 1.6-.05 1.6-2.55 0-2.5-2.6.1-5.25.05-7.9.15-1.6.05-1.6 2.55 0 2.5zm21.05-5.8c0 1.35.15 2.6 0 3.9-.15 1.4-.15 2.55.65 3.75 1.2 1.75 3.5 2.7 5 .85 1.25-1.5 1.2-4-.45-5.15-1.25-.9-2.7-.7-4.15-.6-1.65.1-3.3.1-4.95.1-1.6 0-1.6 2.5 0 2.5 1.55 0 3.1 0 4.7-.1.65-.05 1.5-.25 2.15-.1.6.1 1.6.9.9 1.65-.35.35-.55.15-.95-.3-.65-.75-.5-1.65-.4-2.55.15-1.35.05-2.65 0-4-.05-1.55-2.55-1.55-2.5.05zm-10.48-20.45c-1.55-1.95-4.82-1-6.74-.23-3.23 1.34-5.66 3.88-7.53 6.84-1.83 2.97-3 6.56-1.03 9.77 1.59 2.63 4.63 2.92 7.25 1.82 3.28-1.34 5.85-4.46 7.95-7.23 1.128-1.5349 2.144-3.1491 3.04-4.83.75-1.44 1.78-3.12 1.74-4.8-.05-2.72-2.39-3.2-4.21-1.71-2.2 1.82-3.84 4.69-5.06 7.22-1.68 3.5-2.48 6.85.66 9.67 3.32 3.02 6.22 1.34 9.21-1.24 1.17-1-.51-2.68-1.63-1.68-1.36 1.15-2.86 2.78-4.73 2.01-.8521-.3289-1.5737-.9267-2.0555-1.7026-.4818-.776-.6975-1.6878-.6145-2.5974.33-2.45 2.11-5.08 3.42-7.09.51-.77 1.03-1.48 1.64-2.1 1.63-1.68.84.23.32 1.38-1.1549 2.5555-2.6337 4.9518-4.4 7.13-1.68 2.06-3.64 4.36-6.17 5.41-4.12 1.68-6.03-2.68-4.44-6.17 1.1908-2.7099 3.0782-5.0561 5.47-6.8 1.12-.76 5.05-2.87 6.22-1.39.94 1.2 2.62-.47 1.69-1.67z" fill="#1e2882"/><path d="m62.5601 25.6802c4.16-6.45 8.7-10.56 13.66-16.35996 1.02-1.17 3.3601-3.88 4.7201-4.58.8545-.43629 1.7917-.68679 2.75-.73505s1.9159.10682 2.8099.45505c1.87.65 4.44 3.27 6.13 4.9 4.25 4.16996 6.03 6.17996 9.7199 9.99996 1.5 1.55 3.32 3.28 4.02 5.05.52 1.4.42 1.83.52 3.32.23 3.93.04 8.23-.05 12.15.011 1.4752-.274 2.9375-.84 4.3-.98 1.87-2.15 2.39-4.16 2.9-3.8399.93-8.3199.84-12.2499.89-3.6.04-7.5799.1-11.1799 0-2.7-.1-5.37-.14-8.08-.19-1.69-.05-4.5401-.33-5.8001-1.45-1.17-1.03-1.26-1.5-1.6-3.08-.65-3.09-.5-7.48-.65-10.66-.09-2.1-.32-4.9.19-6.82" fill="#ffd15a"/><path d="m70.8902 32.8302c-.9-2.9-.94-6.08-.14-9.02.32-1.26.84-2.43 1.59-3.5.98-1.4 2.29-2.44 3.6-3.42 1.2148-.897 2.5304-1.6488 3.92-2.24 1.7406-.686 3.6113-.979 5.4783-.858s3.6842.653 5.3217 1.558c3.32 1.82 5.9 5.1 7.11 8.88.6 1.96.84 4.2-.1 5.98-.88 1.73-2.66 2.66-4.3 3.55-2.9 1.5-5.8 3-8.74 4.49-.65.32-1.4.7-2.15.7-.7 0-1.35-.38-1.96-.7-1.83-.94-3.65-1.92-5.47-2.85-1.92-.98-3.88-2.06-5.1-3.98" fill="#fff"/><path d="m62.38 27.9699c2.8 2.38 5.8 4.48 8.7 6.73 1.2.93 2.33-1.13 1.16-2.01-2.76-2.1-5.6-4.12-8.23-6.36-1.12-.98-2.76.66-1.63 1.64zm12.11 8.5c1.91 1.22 3.88 2.34 5.89 3.46.98.51 1.63 1.03 2.7.65 1.46-.51 2.9-1.58 4.26-2.33 1.83-1.03 3.65-2.1 5.43-3.23 1.26-.8.1-2.85-1.17-2-2.9 1.86-6.08 3.31-8.93 5.18-.1.05-.56.23-.61.33-.05.28.6.18.56 0 0-.19-1.59-.84-1.73-.94-1.7729-.9815-3.5201-2.0085-5.24-3.08-1.26-.89-2.43 1.17-1.16 1.96zm23.47-4.02c2.85-1.87 5.65-3.83 8.32-5.98 1.17-.93-.47-2.57-1.64-1.63-2.52 2-5.14 3.87-7.85 5.6-1.26.84-.1 2.85 1.17 2.01z" fill="#1e2882"/><path d="m72.94 33.1002c-2.99-6.54 1.83-15.79 8.89-17 4.11-.7 8.46.84 11.26 3.88 2.95 3.17 3.32 6.91 3.18 11.07-.04 1.5 2.3 1.5 2.34 0 .14-4.9-.56-9.25-4.07-12.9-1.7125-1.7477-3.8245-3.0524-6.1538-3.8015s-4.806-.9202-7.2162-.4985c-8.6 1.64-13.88 12.62-10.24 20.47.61 1.36 2.62.14 2.01-1.21z" fill="#1e2882"/><path d="m78.9298 21.7001c.04.1.1.14.14.24.28.51 1.07.75 1.59.42.56-.33.75-1.03.42-1.59-.05-.1-.1-.14-.14-.23-.28-.52-1.08-.75-1.6-.42-.1311.0764-.2458.178-.3374.2989-.0916.121-.1584.2588-.1966.4057-.0381.1469-.0467.2998-.0255.4501.0213.1502.0721.2948.1495.4253zm7.24-1.07c0-.1.05-.23.1-.33-.14.28-.19.56-.14.89.1.28.28.56.51.7.52.28 1.36.19 1.6-.42.13-.33.18-.51.23-.89.04-.6-.57-1.21-1.17-1.17-.61.05-1.08.57-1.13 1.22zm-8.13 7.8c4.11 3.04 9.44 2.95 13.14-.7 1.07-1.07-.56-2.7-1.64-1.63-3 2.94-7.06 2.75-10.29.32-1.21-.88-2.38 1.13-1.21 2.01z" fill="#1e2882"/><path d="m129.08 6.83008c-.15.92-.15 1.29-.33 2.2-.24 1.30002-.52 2.63002-1.41 3.55002-1.17 1.29-3 1.56-4.74 1.8l-1.27.13c2.02-.1 2.91.18 4.37 1.65.669.7836 1.179 1.6907 1.5 2.67.6 1.75.47 2.62.7 4.46-.1-1.56.99-6.07 1.7-6.9 1.12-1.38 2.2-1.79 3.98-1.88-.89-.18-.89-.18-1.78-.41-.56-.14-1.18-.28-1.6-.7-.47-.45-.6-1.19-.7-1.88-.237-1.55311-.377-3.11948-.42-4.69002z" fill="#ffd15a"/><path d="m128.18 6.83007c-.23 1.84-.28 4.00003-1.73 5.33003-1.36 1.25-3.34 1.34-5.07 1.52-1.08.14-1.18 1.75 0 1.75 4.64-.14 5.3 4.37 5.68 7.9.1 1.1 1.78 1.15 1.78 0 0-3.26.85-7.63 4.79-7.9.94-.05 1.27-1.47.23-1.7-1.92-.46-3.24-.65-3.52-2.9-.182-1.33988-.292-2.68846-.33-4.04003-.14-1.06-1.87-1.06-1.83.04.1 1.98-.04 4.60003.85 6.44003.8 1.65 2.72 1.8 4.32 2.16.1-.55.14-1.15.23-1.7-5.12.37-6.57 5.2-6.57 9.6h1.78c-.47-4.6-1.69-9.79-7.41-9.65v1.75c2.2-.28 4.7-.37 6.38-1.98 1.78-1.7 1.93-4.36003 2.2-6.62003.15-1.1-1.64-1.1-1.78 0zm27.46 18.62003c.15 1.38-.84 3.77-1.78 4.78s-2.16.92-3.43 1.42c1.32.46 2.63.46 3.57 1.34.56.5.75 1.33.9 2.06.18 1.15.28 2.35.23 3.54.28-.87.51-1.7.8-2.57.28-.97.65-2.02 1.4-2.67 1.08-.92 2.12-1.24 3.85-1.28-1.73-.7-3.1-.83-4.27-1.89-.66-.6-1.45-3.26-1.27-4.09" fill="#ffd15a"/><path d="m154.75 25.4502c0 1.15-.37 2.53-1.03 3.5-.84 1.23-2.16 1.42-3.52 1.88-.8.27-.84 1.42 0 1.65 1.27.37 2.72.46 3.43 1.66.75 1.28.6 3.03.56 4.45 0 1.02 1.46 1.15 1.74.23.94-3.03 1.45-5.7 5.2-5.88 1.04-.05 1.18-1.33.24-1.7-1.4-.5-3.24-.78-4.13-2.07-.548-.9301-.809-2.0018-.75-3.08.1-1.1-1.64-1.1-1.78 0-.087 1.5161.324 3.0192 1.17 4.28 1.13 1.51 3.28 1.88 4.97 2.52.1-.55.15-1.14.24-1.7-1.64.1-3.24.42-4.46 1.52-1.5 1.38-1.88 3.77-2.44 5.6.56.1 1.17.15 1.74.24.04-1.75.09-4.18-.94-5.7-.99-1.43-2.77-1.61-4.37-2.07v1.65c1.7-.55 3.2-.68 4.27-2.2 1.014-1.4089 1.572-3.0944 1.6-4.83 0-1.05-1.74-1.05-1.74.05zm-18.07 8.27c-.42-1.65 2.3-4.6 3.05-5.97.94-1.7 1.5-4.19 2.87-5.56l-1.98-1.1c-.65 2.1-1.83 4.13-2.77 6.15-.37.83-.8 1.61-1.17 2.44-.42.87-.84 2.53-1.55 3.17h1.64c0-.05-.04-.05-.04-.1v1.62l.04-.05c.94-1.15-.7-2.76-1.64-1.6l-.05.04c-.42.5-.42 1.1 0 1.6 0 .05.05.05.05.1.42.5 1.22.41 1.64 0 1.46-1.34 2.26-4.32 3.15-6.07 1.08-2.2 2.35-4.37 3.05-6.71.33-1.1-1.17-1.93-1.97-1.1-1.88 1.97-2.63 5.1-4.04 7.44-1.17 1.98-3.1 3.86-2.49 6.35.33 1.37 2.59.78 2.21-.65zm14.6 11.22c1.5 0 1.5-2.3 0-2.3s-1.55 2.3 0 2.3zm-30.47-14.34h.05c.61 0 1.22-.5 1.17-1.15-.04-.65-.51-1.15-1.17-1.15h-.05c-.6 0-1.22.5-1.17 1.15.05.6.52 1.15 1.17 1.15zm23.33-21.6c1.5 0 1.5-2.3 0-2.3s-1.5 2.3 0 2.3z" fill="#ffd15a"/><path d="m126.73 29.8198c1.5-3.45 3.14-6.8 4.93-10.12.94-1.74 5.3-10.80002 7.84-6.94 1.92 2.94-1.18 8.64-2.4 11.26-1.55 3.27-3.33 6.44-4.93 9.66-1.5 3.08-3 6.1-4.88 9-.94 1.48-3.61 6.07-5.58 3.04-.94-1.47 0-3.86.51-5.33.8-2.16 1.64-4.32 2.54-6.44.56-1.38-1.7-1.97-2.26-.6-1.4 3.4-4.22 8.42-3.33 12.28.225.9106.734 1.7259 1.453 2.3282.719.6022 1.611.9601 2.547 1.0218 2.39.23 3.93-1.79 5.15-3.58 4.09-6.07 7.14-12.87 10.38-19.4 1.78-3.63 7.42-15.81-.7-16.36002-3.71-.28-5.73 4.27002-7.23 6.90002-2.3 3.94-4.28 8.04-6.1 12.22-.57 1.24 1.45 2.43 2.06 1.06z" fill="#1e2882"/><path d="m126.21 40.4299c3.76-7.9 7.94-15.63 11.55-23.58.61-1.33-1.4-2.52-2.02-1.15-3.61 7.96-7.8 15.68-11.55 23.58-.6 1.34 1.41 2.49 2.02 1.15zm16.34-12.73c1.92-3.95 3.7-8 5.58-11.95.24-.55 1.18-3.36 1.84-2.67.46.46-.57 2.95-.71 3.54-.42 1.57-.94 3.13-1.4 4.7-.34 1.05 1.17 1.97 1.96 1.1 1.83-1.98 3.76-3.91 5.73-5.8.7-.64 1.64-1.84 2.49-2.25 1.64-.78.89.37.47 1.06-1.97 3.12-4.74 5.84-7.42 8.36-1.08 1.02.56 2.67 1.64 1.61 2.085-1.9411 4.046-4.0119 5.87-6.2 1.08-1.29 3.29-3.5 2.87-5.38-.52-2.25-3.2-2.53-4.75-1.29-3.1 2.48-5.86 5.43-8.54 8.28l1.97 1.1 1.83-6.16c.33-1.2.9-2.57.33-3.81-.8-1.7-3.8-1.52-4.79-.14-1.26 1.74-2.02 4.18-2.9 6.16-1.32 2.85-2.63 5.74-4.04 8.6-.7 1.32 1.31 2.47 1.97 1.14zm-4.46 3.13-5.79 12.07c-.98 2.07-1.83 5.34 1.65 5.47 2.95.1 4.6-3.53 5.77-5.6 2.3-4.1 4.41-8.28 6.8-12.32-.7-.28-1.4-.6-2.15-.87-.869 4.1335-1.437 8.3244-1.7 12.54-.13 1.84-.56 7.17 2.78 6.8 2.77-.32 3.61-5.46 3.94-7.49.75-4.4 1.36-8.82 1.88-13.28.19-1.47-2.16-1.47-2.35 0-.37 2.99-.94 5.98-1.31 8.96-.33 2.58-.28 6.35-1.93 8.5-.51.74-.47.7-.65-.31-.14-.79-.1-1.66-.05-2.44.05-1.24.23-2.44.37-3.68.38-3.03.57-6.11 1.27-9.1.28-1.24-1.45-2.07-2.16-.87-1.55 2.66-3 5.42-4.5 8.13-1.32 2.44-2.5 5.29-4.28 7.45-.28.32-.84 1.06-1.26 1.1-1.18.1-.47-1.2-.24-1.65.57-1.15 1.03-2.3 1.55-3.45 1.36-2.99 2.91-5.88 4.32-8.87.7-1.24-1.31-2.44-1.97-1.1z" fill="#1e2882"/><path d="m203.19 14.7351c.07-.145-.035 0-.075.065.175-.18-.175.11-.05.03s-.235.095-.09.045c.067 0 .048 0-.055 0-.06.0195-.125.0195-.185 0-.08 0-.335-.155-.17-.045-.088-.0567-.163-.1317-.22-.22.09.14 0 0 0-.08v-.175c0 .11 0 .11 0 0 .056-.2221.196-.4139.39-.535.128-.0939.287-.1367.445-.12.075 0 .32.14.16.035s0 0 .055.045c-.115-.095-.03 0 0 .055-.085-.14 0 0 0 .06.027.0948.032.1945.015.2915-.018.097-.057.1888-.115.2685-.11.3333-.37.395-.78.185-.707.2133-1.018-.0934-.935-.92-.089.3162-.05.6545.108.9425.158.2879.423.5024.737.5975.32.0783.658.0312.944-.1314.286-.1627.499-.4288.596-.7436.33-.8-.305-1.665-1.045-1.91-.396-.1049-.818-.0526-1.176.1458-.359.1985-.627.5277-.749.9192-.5 1.3.83 2.63 2.085 2.65.378-.0073.743-.1377 1.04-.3714.297-.2338.509-.5581.605-.9236.123-.4756.067-.9798-.158-1.4165s-.603-.7754-1.061-.9516c-.459-.1761-.966-.1773-1.425-.0034-.46.1739-.839.5108-1.066.9465-.167.2864-.214.6275-.129.9482.084.3207.293.5947.579.7618s.628.2135.948.1291c.321-.0844.595-.2927.762-.5791z" fill="#ffb69b"/><path d="m204.32 26.3348c.06.14 1-.735 1.185-.82.298-.1247.619-.1839.942-.1735.322.0103.639.09.928.2335 1.295.6 1.76 2.0501 1.5 3.3801l1.835-.7451c-.95-.41-1.91-.8-2.895-1.125-.82-.27-2.17-.3749-2.885-.8349l.58.75c-.35.4267-.32.5549.09.3849.227-.0348.456-.0515.685-.05.15 0 1.33.205 1.345.16-.5 1.54 1.93 2.1951 2.41.6651 1-3.145-4.35-4.1301-6.255-2.7301-.258.1768-.468.4168-.608.697-.14.2803-.206.5917-.192.9046.014.313.108.6171.272.8837.165.2666.395.4868.668.6397.74.2854 1.505.4996 2.285.64 1.112.3221 2.203.7145 3.265 1.175.675.29 1.67.1301 1.835-.7449.575-3-.96-6.2151-4.21-6.7201-2.445-.405-6.175 1.895-4.94 4.69.645 1.47 2.8.2 2.16-1.26z" fill="#ffd15a"/><path d="m184.19 32.7248c-.112-.1308-.193-.2847-.239-.4505-.046-.1659-.055-.3398-.026-.5095 0-.15.13-.5 0-.455.29-.065.305.295.465.385.008.0099.013.0222.013.035s-.005.0251-.013.035c.025-.0361.059-.0654.098-.0854.04-.0201.083-.0302.127-.0296.078.0005.154.0272.215.0757.061.0484.104.116.123.1918.018.0759.011.1557-.022.2268-.032.0712-.087.1295-.156.1657l-.965.125.155.06-.54-.32c.07.06.07.045 0-.045.05 1.605 2.55 1.61 2.5 0-.035-1.125-.95-2.545-2.255-2.045-1 .39-1.39 1.655-1.065 2.625.184.4904.537.899.995 1.1521s.992.3339 1.505.2279c.491-.1293.928-.4119 1.247-.8067s.504-.8811.528-1.3883c.1-2.1-2.415-3.925-4.28-2.67-1.565 1.06-1.545 4.06-.175 5.275 1.2 1.06 3-.7 1.77-1.77z" fill="#ffb69b"/><path d="m175.37 23.5599h.345l-1.205-.92c-.027-.1354-.021-.2754.018-.4078.04-.1325.111-.2533.207-.3522-.186.198-.304.4494-.339.7186-.035.2691.015.5425.144.7814.136.2424.347.434.601.5458.255.1119.538.1379.809.0742.338-.0987.634-.3059.843-.5896s.318-.6282.312-.9804c-.004-.2022-.048-.4017-.129-.5868-.082-.1852-.199-.3523-.346-.4918-.146-.1395-.319-.2486-.508-.3209-.188-.0723-.39-.1065-.592-.1005-.404.0064-.789.1697-1.075.4552-.285.2856-.449.671-.455 1.0748.005.4208.177.8224.478 1.1167s.706.4573 1.127.4533c.331 0 .65-.1317.884-.3661s.366-.5524.366-.8839-.132-.6495-.366-.8839-.553-.3661-.884-.3661c.695-.03 1.32 1.07.595 1.63-.103.0917-.223.1613-.354.2043s-.269.0586-.406.0457c-.105-.0046-.207-.0423-.289-.1079-.083-.0655-.143-.1555-.171-.2571-.117-.0429-.218-.1225-.286-.227-.069-.1045-.102-.2283-.094-.353.004-.2013.071-.3962.192-.557.122-.1607.291-.279.483-.338l1.215 2.09c.204-.2194.35-.4857.426-.7754.076-.2896.079-.5935.009-.8846-.077-.2617-.235-.4921-.452-.6576-.216-.1655-.48-.2574-.753-.2624h-.345c-.331.0026-.647.1351-.881.369s-.366.5503-.369.881c.008.3291.142.6426.375.8754.232.2328.546.367.875.3746z" fill="#ffb69b"/><path d="m191.075 18.6351c1.115.65 2.475.92 3.685 1.38 1.29.5 2.3 1.03 3.545.445.155-.075.585-.06.7-.185.132-.1722.216-.3766.242-.592.026-.2155-.005-.434-.092-.633-.251-.5384-.627-1.0096-1.095-1.375l-3.385-3.09.195-.16c1.24-1.5968 2.267-3.3482 3.055-5.21.111-.18106.175-.38705.187-.59924.011-.2122-.031-.42386-.122-.61576-.29-.415-.915-.35-1.4-.21-1.922.54504-3.717 1.46617-5.28 2.71l-2.095-2.66c-.81-1.03-1.665-2.095-2.85-2.655-.14-.08257-.304-.11601-.465-.095-.32.075-.415.5-.435.81-.138 2.17129-.036 4.3512.305 6.5 0 0-2.82.36-3.915.885-.95.455-1.725.5-2.68.965-.183.222-.33.4718-.435.74-.016.0745-.012.1518.011.2245.023.0726.064.1382.119.1905.625.76 1.745.75 2.715.91 1.535.255 2.42.585 3.64.64v.635c-.115 2.17-.135 3.7-.125 5.875 0 .665.12 1.5.75 1.71.257.076.532.0619.78-.04.655-.24.955-1.095 1.345-1.67 1.017-1.4463 1.833-3.0241 2.425-4.69z" fill="#ffd15a"/><path d="m190.425 19.715c2.245 1.125 6.925 3.5 9.315 1.535 2.93-2.4-2.84-6.31-4.2-7.55v1.77c1.5-1.215 4.815-5.99997 3.5-8.07997-1.71-2.715-6.84.885-8.395 2.055l1.5.195c-1.185-1.5-4.285-6.9-6.925-5.6-1 .5-1.045 1.685-1.095 2.65-.079 2.03799.052 4.07867.39 6.08997l1.205-1.58c-1.369.1522-2.72.4352-4.035.845-1.375.46-3.53.785-4.075 2.365-1.17 3.39 5.65 3.67 7.565 3.85l-1.2-1.26c-.168 2.1624-.218 4.3322-.15 6.5.08 1.16.37 2.54 1.665 2.92 3.185.925 5.315-5.195 6.09-7.275l-.875.875.72-.18c1.55-.43.89-2.84-.665-2.41-2.105.57-2.39 3.07-3.46 4.815-.165.27-.63 1.3-.975 1.275-.04 0 0-2.425 0-2.54 0-1.325.09-2.645.14-3.97-.007-.3295-.14-.6437-.374-.8768-.233-.233-.547-.3668-.876-.3732-1.22-.115-2.39-.53-3.61-.64s-2.295.435-.445-.2c1.486-.5613 3.026-.9701 4.595-1.22.19-.0058.377-.054.546-.141.169-.0871.317-.2108.432-.3622.116-.1513.196-.3265.235-.5128s.036-.3789-.008-.564c-.135-.87-.97-5.37997-.19-6.10997l-1.215.32c2 .4 3.705 3.615 4.86 5.08497.194.1927.446.3162.717.3514.271.0353.546-.0197.783-.1564.898-.7009 1.867-1.3075 2.89-1.80998l1.28-.5c.94-.41 1.068-.37499.385.10501-.525 1.64447-1.453 3.13127-2.7 4.32497-.234.2352-.365.5534-.365.885 0 .3317.131.6499.365.885.695.635 4.5 3.305 4 4.47l.875-.875c-2.11.715-5.03-.54-6.965-1.5-1.41-.76-2.675 1.405-1.255 2.12z" fill="#ffd15a"/><g fill="#1e2882"><path d="m185.689 10.8852c-.17-1.14498-1.565-6.06998.47-6.19998.865-.055 1.725 1.19 2.21 1.77.754.9115 1.459 1.86287 2.11 2.85.89 1.32998 3.055.08 2.16-1.26-1.545-2.315-4.215-6.925-7.645-5.64-3.61 1.355-2.125 6.39-1.71 9.14498.24 1.585 2.65.91 2.41-.665z"/><path d="m192.29 9.87488c.825-.56778 1.695-1.06935 2.6-1.5.455-.21 2.58-1.35 3.07-.735.395.5-.405 2.26-.59 2.76502-.416 1.06-.94 2.0738-1.565 3.025-.865 1.36 1.295 2.615 2.16 1.26 1.36-2.135 3.83-6.42502 1.81-8.81002-2.105-2.5-6.77.5-8.745 1.83-1.33.895-.08 3.06002 1.26 2.16z"/><path d="m182.68 18.7652c-.04 2.67-.605 7.9 2.97 8.62 3.45.695 5.5-3.77 6.58-6.275.63-1.46-1.5-2.735-2.16-1.26-.585 1.35-1.82 4.745-3.5 5-1.905.305-1.425-4.89-1.405-6.09 0-1.61-2.5-1.61-2.5 0z"/><path d="m190.835 21.5251c1.413.46 2.838.8817 4.275 1.265 1.555.415 2.22-2 .665-2.41-1.437-.3833-2.862-.805-4.275-1.265-1.535-.5-2.19 1.915-.665 2.41z"/><path d="m179.48 14.6902c1.6-.9878 3.312-1.7802 5.1-2.36 1.5-.5.875-2.90496-.665-2.40996-1.997.63996-3.911 1.51616-5.7 2.60996-1.37.84-.115 3 1.26 2.16z"/><path d="m190.55 21.1352c.965 2.775 2.21 5.43 3.365 8.13.63 1.475 2.785.2 2.16-1.26-1.07-2.5-2.22-4.96-3.115-7.53-.525-1.5-2.94-.86-2.41.665z"/><path d="m194.81 27.6048c-4.755.78-8.235 2.1551-10.96 6.3251-1.88 2.875-2.285 8.16 1 10.2 1.375.85 2.63-1.315 1.26-2.16-1.275-.79-1.37-3.57-1.06-4.91.275-1.195 1.26-2.5301 2.065-3.4201 2.31-2.575 5.12-3.0949 8.36-3.6399 1.585-.26.91-2.67-.665-2.41z"/><path d="m214.395 33.855c-2.93-4.7799-8.63-6.2949-13.91-6.5999-1.605-.095-1.6 2.405 0 2.4999 4.35.25 9.32 1.3901 11.755 5.3601.84 1.37 3 .1149 2.16-1.2601z"/><path d="m189.815 34.2501c-1.244 1.0227-2.053 2.4789-2.265 4.075-.26 2.12.94 3.455 2.815 4.185 1.5.585 2.15-1.835.665-2.41-2-.77-.615-3.17.55-4.085 1.265-1-.5-2.75-1.77-1.77z"/><path d="m189.955 40.9501c-.79 1.33-1.35 2.89-.895 4.44s1.72 2.33 3.225 2.77 2.21-1.96.665-2.41c-.765-.225-1.43-.435-1.54-1.33-.016-.7928.232-1.5684.705-2.205.825-1.385-1.335-2.645-2.16-1.26z"/><path d="m191.924 46.4c-.598.8596-.871 1.9037-.77 2.946s.569 2.0148 1.32 2.744c1.735 1.725 4.25 1.83 6.53 1.5 2.035-.28 3.92-1.395 3.865-3.7-.05-2.2-1.545-2.785-3.365-3.155-1.57-.32-2.245 2.09-.665 2.41.67.135 1.78-.025 1.5 1.055s-2.025 1-2.795 1.025c-1.895.105-5.265-1.145-3.5-3.58.95-1.3-1.215-2.545-2.16-1.26z"/><path d="m198.51 49.1049c3.552.4192 7.137-.4482 10.105-2.445 1.34-.88.09-3.045-1.26-2.16-2.3 1.5-5.405 2.59-8.18 2.19-1.575-.225-2.255 2.185-.665 2.41z"/><path d="m200.269 48.5002c.605 1.68 1.29 3.33 1.895 5 .54 1.5 2.96.855 2.41-.665-.605-1.68-1.29-3.33-1.895-5-.54-1.5-2.96-.855-2.41.665z"/><path d="m192.335 41.9352s.18-.265.145-.22.14-.135.16-.155c-.12.115 0 0 .07-.045l.24-.135c-.215.115.155-.055.25-.085l.56-.16c.32-.0882.591-.2997.755-.588.163-.2884.206-.6299.118-.9495-.089-.3196-.3-.591-.588-.7546-.289-.1637-.63-.2061-.95-.1179-.518.1303-1.021.3147-1.5.55-.587.3331-1.076.8162-1.415 1.4-.167.2865-.213.6275-.129.9482s.293.5947.579.7618c.287.1671.628.2136.948.1292.321-.0844.595-.2927.762-.5792z"/><path d="m193.835 47.875c.527-.6954 1.237-1.2317 2.05-1.55.285-.1679.493-.4419.577-.7623.084-.3203.039-.6609-.127-.9477-.174-.2796-.447-.4821-.766-.5659-.318-.0837-.656-.0422-.944.1159-1.192.5275-2.213 1.3758-2.95 2.45-.165.2871-.21.6273-.126.9472.085.32.291.594.576.7628.288.1607.627.2035.945.1196.319-.0839.593-.288.765-.5696z"/></g><path clip-rule="evenodd" d="m242.2 14.6002c.72-1.32-1.17-2.5-1.91-1.24.114-.2234.308-.3956.543-.4827.236-.0871.495-.0825.727.0127 1.83-2.96461 4.667-5.17056 7.991-6.21372 3.325-1.04316 6.913-.85369 10.109.5337 6.06 2.67 9.9 8.91002 10.3 15.78002.37 6.67-2.3 14.2-9.21 15.35 2.19-.89.6-8.5-.52-12.08-.23-3.8-.68-6.43-4.3-10.25 0-.68.5-1.58 1-2.5.9-1.66 1.87-3.4.13-4.17002-8.17-.32-12.2 4.80002-14.1 7.23002-.93 1.2-1.35 1.74-1.5.63zm14.4 13.33-3.16-3.82-3.16 4.77-1.81 3.82 2.71 4.29h3.62l1.36-4.77.45-4.3z" fill="#b8ddf0" fill-rule="evenodd"/><path clip-rule="evenodd" d="m236.35 28.8499c.03-1.2.05-2.43.06-3.67.05-4.03.1-8.15.75-12.01.19-1 .96-3.90996 2.45-3.38996.9.29996.81 1.55996.75 2.51996l-.03.4-.03 2.38c.011 1.2636-.006 2.5272-.05 3.79-1.213 3.071-2.124 6.2526-2.72 9.5-.32 1.48 1.85 2.1 2.17.62.68-3.29 1.4-6.48 2.76-9.53.16-.35.15-.69.05-.97.04-1.48.04-3 .04-4.46l.03-1.24c.05-1 .1-2.02-.12-2.95996-.6-2.43-3.3-3.15-5.16-1.76-2.31 1.74-2.55 5.15996-2.75 7.98996l-.05.78c-.24 3-.32 6.02-.4 9.03l-.1 3.03c.04 1.48 2.3 1.48 2.35-.05zm18.43-18.84996c-2.97.86996-5.9 2.82996-8.18 4.79996-1.1.96-2.74-.69-1.6-1.6 2.124-1.861 4.509-3.40073 7.08-4.56996l.07-.03c1.59-.72 3.7-1.7 5.46-.79 3.62 1.84 1 5.60996-1.59 7.73996 2.75.87 4.2 3.7 4.93 6.54.42 1.64.56 3.7-.2 5.1.9.5 1.59 1.37 1.87 2.48.55 2.05.19 4.08-.16 6.08-.274 1.4764-.444 2.97-.51 4.47-.11 2.25-.22 4.33-1.9 6.18-4.2 4.68-10.31 4.3-15.38 1.77-1.31-.67-.18-2.72 1.13-2.05 3.44 1.71 6.65 2.29 10.18.43 1.232-.6004 2.279-1.523 3.03-2.67.69-1.25.68-2.67.68-4.06 0-.53 0-1.06.04-1.57.06-.7.24-1.52.43-2.39.42-1.87.88-3.95.2-5.52-1.44-3.39-3.2.67-3.39 2.1-.07.38-.1.78-.15 1.19-.07.69-.15 1.39-.35 2.05-1.3 4.29-6.28 3.95-8.05.19-.483-.9622-.764-2.013-.826-3.0878-.061-1.0747.097-2.1508.466-3.1622.3-.77.74-1.33 1.21-1.93 1.294-1.4999 2.17-3.314 2.54-5.26.14-.75.72-.98 1.26-.86.23.02.44.12.6.32.23.2.39.49.41.83.58 1.25 1.64 3.08 2.9 3.33 3.56.71 1.62-4.39 1.03-5.63-2.49-5.2-7.28-1.95-10.17.77-1.09 1-2.67-.67-1.59-1.63 1.77-1.63 3.75-3.36 6-4.02.042-.1358.114-.2604.211-.3643s.216-.1845.349-.2357c1.51-.69 3.3-1.83 3.93-3.48.64-1.59996-.59-1.86996-1.96-1.45996zm-1.57 15.73996c.78 1.06 1.75 2 2.87 2.54-.695 1.0982-1.132 2.3391-1.28 3.63-.05.3-.07.66-.1 1.05-.06 1.1-.14 2.43-.85 3.1-1.13 1.05-2.67-.1-3.25-1.1-.664-1.2057-.829-2.6238-.46-3.95.26-.97.84-1.75 1.43-2.54.649-.8447 1.199-1.7606 1.64-2.73zm-10.62 6.65c.4-2.81 1.27-5.39 2.58-7.82.72-1.33-1.22-2.53-1.94-1.2-1.444 2.603-2.394 5.4511-2.8 8.4-.24 1.48 1.94 2.14 2.16.62zm-8.12 3.66-.1-.37c-.46-1.48 1.75-2.1 2.16-.62l.17.57c.44 1.54.89 3.13 1.73 4.48 1 1.48 2.22 2.53 3.57 3.62 1.18.91.05 2.96-1.13 2.05-1.577-1.089-2.954-2.4422-4.07-4-1.15-1.7-1.74-3.7-2.33-5.73z" fill="#1e2882" fill-rule="evenodd"/><path d="m346 24.5002c.5 9 .3 11.32.04 21.23-.06 1.82-.27 4.15 1.37 5.03.8.42 2.43.16 3.33.16 4.49 0 8.98 0 13.47-.05h8.82c1 0 2.06 0 3.01-.26.49-.1133.953-.3228 1.362-.6164.408-.2935.754-.6652 1.018-1.0936.32-.63.47-1.3.47-2.03-.15-8.5-1.42-16.22-.89-24.89-2.8.42-5.65.1-8.5 0-.74-.05-.97.04-1.5-.48-.42-.42-.9-.93-1-1.5-.21-1.25.4-4.7.5-6-3.33-.16-7.6-.18-12.5 0-2.85.1-8.5-.5-9 1" fill="#ffd15a"/><path clip-rule="evenodd" d="m352.2 21.7002c-.26 0-.53.02-.8.04-1.65.1-1.6-2.4 0-2.5 1.4-.1 2.75-.15 4.15-.1 1.6.05 1.6 2.55 0 2.5-.28-.0071-.56-.0105-.84-.01-.027.9532-.027 1.9069 0 2.86v.15c.04 1.6-2.46 1.6-2.5 0-.04-1-.03-1.97 0-2.95z" fill="#1e2882" fill-rule="evenodd"/><path d="m368.45 6.99983c.1-2.26 2-1.8 3.7-1.76 1.8 0 3.8-.2 5.55.05 1.3.2 2.2.5 2.5 1.75.15.6 0 1.3.05 1.9.05 1.44997.1 2.94997.2 4.39997.1 1.6 2.6 1.6 2.5 0-.1-2.4.2-5.14997-.35-7.49997-.55-2.4-2.65-2.95-4.85-3.05-2.75-.15-6-.55-8.75-.05-2.3.4-2.95 2-3 4.2-.1 1.65 2.4 1.65 2.45.05zm-2.7 6.19997c-.05 2.74-1.05 8.7 2 10.14 1.5.75 3.6.4 5.2.45h8.2c1.6 0 1.6-2.5 0-2.5-3.5-.05-7.05.05-10.55 0-1.1 0-1.75.15-2.25-1.15-.2-.65-.1-1.55-.15-2.25-.1-1.55-.05-3.1 0-4.7s-2.45-1.6-2.45 0z" fill="#1e2882"/><path d="m371.05 8.14004c-.35.2-.25 1-.3 1.3-.1 1.79996.05 3.49996.05 5.29996 0 .65-.05 1.15.05 1.9.05.2 0 .6.1.8.15.35.55.4.85.4 1.9.05 3.8-.4 5.7-.2.1 0 .15-.2.25-.25.05-.05.4-.15.45-.2.2-.35.2-.15.15-.55-.05-.25 0-.8 0-1.1-.2-1.8-.15-6.54996-.4-7.19996-.1-.3-.45-.4-.95-.4-.75.05-2.05-.1-2.85-.15-.75 0-2.7.1-3.1.35z" fill="#f68559"/><path d="m370.2 7.24023c-1.2 1.55-.65 4.14997-.65 5.94997 0 1.5-.55 4.4.9 5.45.8.6 1.85.45 2.8.4 1.35-.1 3 .1 4.3-.15.35-.05.55-.2.9-.35.35-.2-.3.2.05-.05.5-.35.9-.55 1.05-1.2.35-1.25-.05-3-.1-4.25-.05-1.5.15-3.24997-.2-4.69997-.4-1.7-1.85-1.55-3.3-1.65-1.65-.1-3.6-.35-5.2.25-1.5.6-.85 3 .65 2.4.85-.3 1.85-.3 2.75-.3.65 0 1.8.35 2.35.15.6.15.7 0 .3-.5 0 .1 0 .2.05.3-.3.65.1 2.29997.1 3.04997l.15 3.35c0 .35-.1.95 0 1.25 0 .6.15.45.35-.45-.15.05-.3.1-.45.2-.106.0564-.194.1435-.25.25.2-.45-.05-.55-.65-.35-.75-.15-1.75.1-2.5.2-.35.05-.7.05-1.05.05-.5.2-.65 0-.5-.6-.2-.65 0-1.7 0-2.35 0-.9-.05-1.75-.05-2.65 0-.25-.15-1.79997-.05-1.94997.95-1.2-.8-3-1.75-1.75z" fill="#f68559"/><path d="m372.9 11.8402c-.3.6-.45 1.3-.3 1.95.2.9 1.15 1.4 2 1.4s1.65-.4 2.05-1.1c.5-.9.25-1.85-.4-2.6-.65-.7-1.65-.95-2.5-.45-.7.35-1.2 1.2-1.2 2 .05 1.05 1 1.65 1.95 1.55 1-.1 2-1.05 1.65-2.15-.2-.55-.65-.9-1.2-.9h-.05c-.4-.05-.9.25-1.1.6v.05c-.3.6-.15 1.4.45 1.7s1.4.15 1.7-.45v-.05c-.35.2-.7.4-1.1.6h.05l-1.2-.9c-.05-.6.1-.9.5-.95.15-.05.2-.05.1-.05s-.1 0 .1.05l.6.95c0 .05-.05.05-.05.1.05-.1.05-.1 0-.05l.05-.05-.25.15c-.15.05-.4-.15-.45-.1-.05-.05-.05-.05 0 0s.1.05.1.1l-.05-.05c.1.15.1.15.05-.05 0-.2 0-.15.05-.35-.05.1-.1.1 0 0s.1-.05.25-.1c-.1-.05-.15-.05-.05 0s.2.1.2.25c.15.1.2.25.2.45v-.1c0-.05.05-.3 0-.1s0-.05.05-.1c.15-.35.05-.1 0 0 .25-.6.2-1.35-.45-1.7-.55-.25-1.45-.15-1.75.45z" fill="#1e2882"/><path d="m372.25 18.5398c1.3-1.95 3.8-1.75 5.25 0 .3-.7.6-1.4.9-2.15-2.35.25-4.7.25-7.1.25-1.6 0-1.6 2.5 0 2.5 2.35 0 4.75 0 7.1-.25 1.1-.1 1.6-1.25.9-2.15-.561-.6979-1.28-1.2522-2.098-1.6169-.818-.3648-1.711-.5296-2.605-.4807s-1.764.3099-2.537.7617c-.774.4517-1.428 1.081-1.91 1.8359-.95 1.4 1.2 2.65 2.1 1.3zm-9.35 6.96h-4.65c-1.65 0-1.65-2.5 0-2.5h4.65c1.6 0 1.6 2.5 0 2.5zm11.1 5.9h-21.25c-1.65 0-1.65-2.5 0-2.5h21.25c1.6 0 1.6 2.5 0 2.5zm-21.45 5.94h21.6c1.6 0 1.6-2.5 0-2.5h-21.6c-1.6 0-1.6 2.5 0 2.5zm21.6 5.9h-21.6c-1.6 0-1.6-2.5 0-2.5h21.6c1.6 0 1.6 2.5 0 2.5z" fill="#1e2882"/><path d="m425.3 7.22984c4-.72 9.05.2 11.48 3.43996 2.14 3.0058 3.108 6.6905 2.72 10.36-.4 3.73-2.87 6.92-5.99 9-2.17 1.46-5.04 1.7-7.57 1.02-2.52-.68-6.03-1.74-7.77-3.68-2.67-3.1-2.92-6.3-3.16-10.36-.1-1.84.79-5.27 2.52-5.9.05 0 3.76-3.14996 7.77-3.87996z" fill="#ffd15a"/><path d="m401.14 45.45c-.221-8.7517-.238-17.5074-.05-26.26 0-.71.52-1.08 1.06-1.12l.08-.06c5.5-5.05 9.6-7.77 14.42-11.15996.69-.68 2-.18 1.96.81-.15 5.78996.2 11.56996.56 17.35996.38 6.37.77 12.75.49 19.12-.05.68-.5 1.04-1.14 1.13-5.398.6388-10.819 1.0758-16.25 1.31-.63.05-1.13-.54-1.13-1.13z" fill="#b8ddf0"/><path d="m400.68 17.03c5.45-4.6 11.2-8.86002 17.28-12.66002.6-.67 2.02-.43 2.02.71.15 6.28002.22 12.53002.29 18.80002l.12 9.37c0 1.44-2.28 1.44-2.28 0l-.12-9.38c-.06-5.56-.12-11.12-.24-16.70002-5.347 3.45382-10.474 7.23782-15.35 11.33002l-.13 27.27c5.62-.85 11.27-1.31 16.97-1.31 1.45 0 1.45 2.26 0 2.26-5.96 0-11.92.45-17.84 1.45-.76.12-1.28-.45-1.38-1.04-.021-.0918-.031-.1858-.03-.28l.14-28.88c0-.46.23-.78.54-.94z" fill="#1e2882"/><path d="m420.34 13.8001c3.73-.58 7.51-.67 11.29-.53l-1.14-1.13c.23 8.22.45 16.45.77 24.72.05 1.45 2.32 1.45 2.28 0-.32-8.22-.55-16.45-.78-24.72 0-.64-.5-1.09-1.13-1.13-4-.14-7.97 0-11.88.63-1.46.23-.87 2.4.6 2.17zm1.18 28.9c2.19-.28 4.42-.41 6.6-.37 1.46 0 1.46-2.26 0-2.26-2.23 0-4.41.14-6.6.37-1.45.18-1.45 2.44 0 2.26z" fill="#1e2882"/><path d="m420.02 19.3199c2.55-.22 5.1-.45 7.65-.45 1.45 0 1.45-2.26 0-2.26-1.91 0-3.82.15-5.74.3-.63.06-1.27.1-1.9.15-1.46.1-1.46 2.35 0 2.26zm0 7.78c2.23-.24 4.46-.23 6.7-.23h.95c1.45 0 1.45-2.26 0-2.26-2.55 0-5.1 0-7.65.23-1.45.14-1.45 2.4 0 2.26zm7.33 6.74c-2.6 0-5.23 0-7.78.5-1.41.26-2.05-1.9-.64-2.18 2.781-.4646 5.601-.6588 8.42-.58 1.45 0 1.45 2.26 0 2.26zm-23.94-9.32c1.05 4.89 2 9.81 3.1 14.7.23 1.03 2 1.08 2.18 0 .82-4.53 1.37-9.14 2-13.7h-2.18c.86 3.8 1.77 7.6 3.05 11.3.4 1.22 2.14 1 2.23-.32.5-5.96 1.04-11.93 1.54-17.9.14-1.45-2.13-1.45-2.27 0-.5 5.97-1.05 11.94-1.55 17.9.73-.09 1.5-.18 2.23-.31-1.224-3.7077-2.242-7.4801-3.05-11.3-.22-1.04-2.04-1.14-2.18 0-.68 4.56-1.18 9.13-2 13.7h2.18c-1.1-4.89-2.05-9.82-3.1-14.7-.27-1.4-2.45-.81-2.18.63z" fill="#1e2882"/><path clip-rule="evenodd" d="m490.62 4.09991c-.4.36-.75.76-1.05 1.16-.4.55-1.3.4-1.75 0-.2-.25-.35-.6-.35-.9 0-.35.15-.6.35-.85.35-.4.7-.8 1.05-1.15.5-.5 1.25-.45 1.75 0s.45 1.3 0 1.75zm-34.96 40.57999 1.2 2.13c-.46.3-.7.98-.24 1.5 3.6 3.8 9.3 2.7 13.9 1.65 4.8-1.15 10.1-2.5 14.4-4.85 1.4-.75 5.6-3 2.15-4.5-1.05-.48-2.55-.23-4.02.18 2.895-2.9033 5.852-5.744 8.87-8.52 2-1.83 3.93-3.58 4.1-6.51.15-2.25-1.2-3.1-3.05-1.85-.74.51-1.43.87-2.15 1.15l.23-.45c.16-.32.3-.6.42-.8.36-.62.77-1.25 1.18-1.9 1.2-1.85 2.47-3.81 2.87-5.85.35-1.9.15-5-2.45-4.45-2.49.53-4.96 2.36-7.17 4.1l.52-1.77c.349-1.3304.767-2.6421 1.25-3.93.85-2.19999.55-5.14999-2.5-4.09999-3.66 1.26-7.06 3.82-10.2 6.17999-.499.382-.999.762-1.5 1.14-.54.47-2.18 1.86-2.45 1.73-.4-.16.22-1.3.58-1.98l.22-.42c.75-1.65 1.2-3.09999.7-4.84999-.15-.45-.65-.85-1.15-.65-2.3.86-4.33 3.39999-6.07 5.55999-.48.6-.94 1.18-1.38 1.69-2.485 2.7625-4.695 5.76-6.6 8.95-3.65 6.3-6 14.2-2.85 21.15.24.55.79.55 1.19.27zm41.96-33.22 1-1c.45-.45.5-1.29999 0-1.74999s-1.25-.5-1.75 0l-1 1c-.45.44999-.5 1.29999 0 1.74999s1.25.45 1.75 0z" fill="#f68559" fill-rule="evenodd"/><path d="m456.57 45.1601c.65-1.4 1.65-2.6 2.7-3.8 7.05-8.2 15.45-15.2 22-23.8.75 1.35 1.55 2.65 2.3 4 .3.5.6 1.1.55 1.65-.05.5-.3.95-.55 1.35-2.05 3.25-4.1 6.55-6.1 9.8 1.9-3.3 3.85-6.65 5.3-10.2.4-.95.7-2.25-.05-2.95-.5-.5-1.35-.5-2-.2s-1.15.85-1.65 1.35c-6.1 6.75-12.15 13.4-18.2 20.05-1.3 1.4-2.65 2.9-4.5 3.5 4.7-1.8 7.65-6.35 11.5-9.55-2.5 2.85-5.05 5.65-7.55 8.5" fill="#fff"/><path d="m457.62 45.7599c2.75-5.25 8-9.55 12.15-13.7 4.3-4.35 8.6-8.75 12.35-13.6-.65-.1-1.3-.15-1.95-.25.65 1.15 1.6 2.35 2.05 3.6.7 1.9-.35 3.05-1.3 4.6-1.55 2.45-3.05 4.9-4.6 7.35l2.15 1.25c1.25-2.15 2.5-4.35 3.65-6.55.85-1.65 2.05-3.6 2.2-5.5.35-3.95-3.85-3.8-5.95-1.65-3.8 3.85-7.3 8.05-10.95 12.05-1.85 2-3.7 4.05-5.5 6.05-1.7 1.9-3.45 4.35-5.9 5.3.2.8.45 1.6.65 2.4 5-2.1 8.05-6.45 12.05-9.9l-1.75-1.75c-2.5 2.85-5.05 5.65-7.55 8.5-1.05 1.2.7 2.95 1.75 1.75 2.5-2.85 5.05-5.65 7.55-8.5 1.1-1.2-.55-2.8-1.75-1.75-3.6 3.1-6.45 7.35-10.95 9.25-1.45.6-.85 3 .65 2.4 3-1.15 4.9-3.65 7-5.95 2.95-3.2 5.85-6.4 8.8-9.6l4.2-4.65c.65-.7 1.3-1.45 1.95-2.15.75-.85 1.3-2.1 2.45-1.7 1.3.4-.05 2.05-.5 2.95-.4.8-.8 1.6-1.2 2.35-.95 1.8-2 3.6-3.05 5.4-.8 1.4 1.3 2.65 2.15 1.25l3.3-5.3c1-1.65 2.4-3.35 3.15-5.15 1.15-2.65-1.4-5.45-2.65-7.65-.35-.65-1.45-.9-1.95-.25-3.95 5.1-8.45 9.65-13 14.25-4.05 4.15-9.1 8.4-11.85 13.6-.75 1.45 1.4 2.7 2.15 1.25z" fill="#fff"/><path d="m467.77 31.3599c3.6-4.25 7.3-8.3 11.2-12.3 1.15-1.15-.65-2.9-1.75-1.75-3.9 4-7.65 8.05-11.25 12.3-1 1.25.75 3 1.8 1.75zm13.4-14.56c1.15 1.2 2.3 2.56 3.1 4 1.25 2.4-.4 4.26-1.55 6.26-1.712 2.9223-3.814 5.5971-6.25 7.95-1.2 1.1.6 2.85 1.75 1.75 3.4-3.15 5.9-7 8.15-11 2.3-4.1-.65-7.75-3.45-10.7-1.1-1.2-2.9.6-1.75 1.75z" fill="#1e2882"/><path d="m481.27 20.7999c-5.05 6.2-10.5 12.06-15.65 18.16-1.05 1.2.75 3 1.75 1.75 5.2-6.1 10.65-11.95 15.65-18.15 1-1.25-.75-3-1.75-1.75zm-25.45 28.66c.3-2 1.1-4.4 2-6.2.65-1.3 1.9-2.45 2.85-3.55l3.9-4.65c1-1.25-.75-3-1.75-1.75-2.25 2.75-5.5 5.6-7.15 8.75-1 1.95-1.95 4.55-2.25 6.75-.2 1.55 2.2 2.25 2.4.65z" fill="#1e2882"/><path d="m455.27 50.4001c2.35-1.24 4.65-2.7 6.95-4.1 1.35-.84.1-3-1.25-2.14-2.3 1.4-4.55 2.85-6.95 4.1-1.45.75-.2 2.9 1.25 2.15z" fill="#1e2882"/><path d="m457.57 42.9599c.9.95 1.95 1.85 2.85 2.8 1.1 1.15 2.9-.6 1.75-1.75-.9-.95-1.95-1.85-2.85-2.8-1.1-1.2-2.9.55-1.75 1.75zm11-14c1.05 1 2.1 2 3.2 3 1.15 1.1 2.95-.65 1.75-1.75-1.05-1-2.1-2-3.2-3-1.15-1.1-2.9.65-1.75 1.75z" fill="#1e2882"/><path d="m292.39 29.3302c.2-3-4-10 3.07-14 3.83-2.17 9 .86 9.93 5 1.06 5-1 9-4 10 11.57 5 12.06 15 11 17s-3.84 2-4.33 2c-6.22.14-9.13 0-15.66-.23-3.34-.1-6-1.7-6-4.86-.01-10.47 5.67-10.13 5.99-14.91z" fill="#f38360"/><path d="m331.05 29.5099c-1.05-4.15-4.48-6.59-8.39-7.81l.29 2.19c3.84-2.2 5.44-8.2 2.89-11.85-.883-1.29-2.133-2.28615-3.587-2.86003s-3.047-.69925-4.573-.35998c-1.16.17302-2.239.69849-3.091 1.50521-.851.8068-1.434 1.8557-1.669 3.0048-.9 3.9.75 7.39 3.12 10.4l.24-1.89c-3.41 2.18-6.46 4.65-7.55 8.72-.085.3077-.044.6364.113.914.158.2775.419.4811.727.566.307.0849.636.0441.914-.1135.277-.1575.481-.4188.566-.7265.92-3.45 3.57-5.45 6.45-7.28.154-.0966.286-.2265.384-.38.098-.1536.161-.3272.184-.5081s.006-.3646-.051-.5379-.152-.3318-.277-.464c-1.91-2.42-3.45-5.6-2.32-8.72.8-2.19 3.89-2.72 5.87-2 .7.2839 1.336.7067 1.869 1.2429s.951 1.1748 1.231 1.8771c.436 1.416.351 2.9414-.24 4.3-.362.9185-.914 1.75-1.62 2.44-.236.264-.517.484-.83.65-.199.1225-.358.3-.458.511-.101.211-.138.4465-.107.678.031.2316.128.4493.279.6269.152.1776.352.3076.576.3741 3.13 1 5.87 2.81 6.71 6.14.042.1523.113.2949.211.4196.097.1246.217.2289.355.3069.137.078.289.1282.446.1477.156.0194.315.0078.468-.0342.152-.042.295-.1136.419-.2107.125-.0972.229-.2179.307-.3553s.128-.2889.148-.4457c.019-.1568.008-.316-.034-.4683z" fill="#1e2882"/><path d="m330.15 35.96c.13.6994.008 1.4222-.346 2.0395-.353.6172-.915 1.0888-1.584 1.3305-1.246.3387-2.54.4737-3.83.4-2.56 0-5.14 0-7.71-.1-1.54-.06-1.54 2.34 0 2.4 2.9.11 5.82.16 8.72.08 1.8.1012 3.587-.3525 5.12-1.3.815-.6355 1.434-1.4873 1.788-2.458.354-.9708.427-2.0214.212-3.032-.084-.3059-.286-.566-.561-.7234-.276-.1574-.602-.1993-.909-.1166-.303.0909-.56.2956-.717.5713-.156.2758-.2.6013-.123.9087z" fill="#1e2882"/><path d="m285.2 20.65h2.41c.317-.0074.62-.1321.85-.35.112-.1114.2-.2439.26-.3898.061-.146.091-.3024.09-.4602.002-.158-.028-.3147-.088-.4608s-.149-.2785-.262-.3892c-.226-.2239-.532-.3497-.85-.35h-2.41c-.318.0003-.624.1261-.85.35-.112.1114-.2.2439-.26.3898-.06.146-.091.3024-.09.4602 0 .1658.035.3297.102.4812s.165.2874.288.3988c.229.2195.533.3445.85.35z" fill="#1e2882"/><path d="m291.67 8.81012 1.51 2.71998c.158.2669.412.4636.71.55.314.0811.647.0382.93-.12.265-.1658.458-.4268.538-.7298.08-.3029.041-.6248-.108-.9002l-1.51-2.71998c-.158-.26695-.412-.46362-.71-.55-.314-.08114-.647-.03816-.93.12-.271.16616-.467.43079-.548.7384-.08.3076-.038.6343.118.9116z" fill="#1e2882"/><path d="m306.39 13.5901 1.63-2.43c.081-.1392.133-.2932.154-.4529.02-.1597.009-.3219-.034-.4771-.086-.29795-.283-.55183-.55-.70996-.139-.08087-.293-.13314-.453-.15375-.16-.0206-.322-.00913-.477.03375-.293.09547-.544.28989-.71.55l-1.63 2.42996c-.081.1393-.133.2932-.154.4529-.02.1597-.009.3219.034.4771.082.3027.28.5611.55.72.279.1586.609.2017.92.12.3-.0927.556-.2919.72-.56z" fill="#1e2882"/></svg>