<svg width="64" height="65" viewBox="0 0 64 65" fill="none" xmlns="http://www.w3.org/2000/svg">
<rect y="0.86792" width="63.9967" height="63.9967" rx="16" fill="white"/>
<path d="M16.4967 16.8676H41.1049C41.8493 16.8564 42.5699 17.1013 43.117 17.5514C43.4018 17.7968 43.6268 18.092 43.7787 18.4181C43.9305 18.7443 44.0057 19.0949 43.9994 19.4481V54.285C43.9994 54.9694 43.6944 55.6258 43.1515 56.1097C42.6085 56.5937 41.8721 56.8656 41.1043 56.8656H16.496C15.7506 56.8629 15.0351 56.6041 14.4984 56.143C14.2163 55.9032 13.9917 55.6147 13.8375 55.2956C13.6833 54.9763 13.6031 54.6326 13.6016 54.285V19.4481C13.6016 18.7637 13.9066 18.1073 14.4496 17.6234C14.9925 17.1394 15.7288 16.8676 16.4967 16.8676Z" fill="#C3E5FE"/>
<g opacity="0.8" filter="url(#filter0_b_1864_4003)">
<path d="M23.0475 8.86781H48.9509C49.7345 8.85623 50.493 9.11093 51.0689 9.579L20.9447 49.7142C20.6476 49.4648 20.4107 49.165 20.2484 48.833C20.0861 48.5009 20.0016 48.1435 20 47.7819V11.5515C20 10.8398 20.3211 10.1572 20.8926 9.65386C21.4641 9.15056 22.2392 8.86781 23.0475 8.86781Z" fill="url(#paint0_linear_1864_4003)" fill-opacity="0.01"/>
<path d="M20.9447 49.7142L51.0689 9.579C51.3689 9.83426 51.606 10.1414 51.7659 10.4807C51.9258 10.82 52.0048 11.1846 51.9982 11.5519V47.7823C51.9982 48.4941 51.6772 49.1767 51.1057 49.68C50.5342 50.1833 49.759 50.466 48.9507 50.466H23.0473C22.2627 50.4633 21.5096 50.1938 20.9447 49.7142Z" fill="url(#paint1_linear_1864_4003)" fill-opacity="0.01"/>
</g>
<g style="mix-blend-mode:multiply" opacity="0.8">
<path d="M23.0475 8.86781H48.9509C49.7345 8.85623 50.493 9.11093 51.0689 9.579L20.9447 49.7142C20.6476 49.4648 20.4107 49.165 20.2484 48.833C20.0861 48.5009 20.0016 48.1435 20 47.7819V11.5515C20 10.8398 20.3211 10.1572 20.8926 9.65386C21.4641 9.15056 22.2392 8.86781 23.0475 8.86781Z" fill="url(#paint2_linear_1864_4003)"/>
<path d="M20.9447 49.7142L51.0689 9.579C51.3689 9.83426 51.606 10.1414 51.7659 10.4807C51.9258 10.82 52.0048 11.1846 51.9982 11.5519V47.7823C51.9982 48.4941 51.6772 49.1767 51.1057 49.68C50.5342 50.1833 49.759 50.466 48.9507 50.466H23.0473C22.2627 50.4633 21.5096 50.1938 20.9447 49.7142Z" fill="url(#paint3_linear_1864_4003)"/>
</g>
<path d="M34.5029 20.7169C35.0309 19.3546 36.9584 19.3546 37.4864 20.7169L38.8568 24.2527C39.0838 24.8384 39.6326 25.2371 40.2597 25.272L44.0459 25.4827C45.5047 25.5639 46.1004 27.3971 44.9679 28.3202L42.0287 30.7162C41.5418 31.113 41.3322 31.7581 41.4928 32.3654L42.4624 36.0314C42.836 37.4439 41.2765 38.5769 40.0486 37.7851L36.8617 35.7301C36.3338 35.3897 35.6555 35.3897 35.1276 35.7301L31.9407 37.7851C30.7128 38.5769 29.1533 37.4439 29.5269 36.0314L30.4965 32.3654C30.6571 31.7581 30.4475 31.113 29.9607 30.7162L27.0214 28.3202C25.8889 27.3971 26.4846 25.5639 27.9434 25.4827L31.7296 25.272C32.3568 25.2371 32.9055 24.8384 33.1325 24.2527L34.5029 20.7169Z" fill="#E7F5FF"/>
<defs>
<filter id="filter0_b_1864_4003" x="13.6003" y="2.46776" width="44.7993" height="54.398" filterUnits="userSpaceOnUse" color-interpolation-filters="sRGB">
<feFlood flood-opacity="0" result="BackgroundImageFix"/>
<feGaussianBlur in="BackgroundImageFix" stdDeviation="3.19984"/>
<feComposite in2="SourceAlpha" operator="in" result="effect1_backgroundBlur_1864_4003"/>
<feBlend mode="normal" in="SourceGraphic" in2="effect1_backgroundBlur_1864_4003" result="shape"/>
</filter>
<linearGradient id="paint0_linear_1864_4003" x1="35.9992" y1="57.8939" x2="36.4918" y2="9.5792" gradientUnits="userSpaceOnUse">
<stop stop-color="#2789F4"/>
<stop offset="1" stop-color="#4DA9F8"/>
</linearGradient>
<linearGradient id="paint1_linear_1864_4003" x1="35.9992" y1="57.8939" x2="36.4918" y2="9.5792" gradientUnits="userSpaceOnUse">
<stop stop-color="#2789F4"/>
<stop offset="1" stop-color="#4DA9F8"/>
</linearGradient>
<linearGradient id="paint2_linear_1864_4003" x1="35.9992" y1="57.8939" x2="36.4918" y2="9.5792" gradientUnits="userSpaceOnUse">
<stop stop-color="#2789F4"/>
<stop offset="1" stop-color="#4DA9F8"/>
</linearGradient>
<linearGradient id="paint3_linear_1864_4003" x1="35.9992" y1="57.8939" x2="36.4918" y2="9.5792" gradientUnits="userSpaceOnUse">
<stop stop-color="#2789F4"/>
<stop offset="1" stop-color="#4DA9F8"/>
</linearGradient>
</defs>
</svg>
