<svg fill="none" height="41" viewBox="0 0 41 41" width="41" xmlns="http://www.w3.org/2000/svg"><circle cx="20.5" cy="20.5" r="20.5"/><path d="m29.9912 29.2673c-.3582.5875-1.1273.7738-1.7148.4131-4.6959-2.8683-10.6074-3.5179-17.5693-1.9273-.6709.1528-1.3396-.2675-1.49245-.9386-.15357-.6711.2651-1.3399.93765-1.4927 7.6187-1.7406 14.1538-.9911 19.4257 2.2307.5875.3606.7738 1.1273.4132 1.7148zm2.448-5.4458c-.4514.7337-1.4115.9653-2.1447.5139-5.3761-3.3044-13.571-4.2614-19.9299-2.3312-.82467.2491-1.69568-.2157-1.94598-1.0389-.24838-.8247.21662-1.694 1.03987-1.9448 7.26351-2.2039 16.29351-1.1364 22.46721 2.6575.7332.4514.9649 1.4112.5135 2.1435zm.2102-5.6708c-6.446-3.8287-17.0812-4.1807-23.23557-2.3128-.98828.2997-2.0334-.2582-2.33289-1.2465-.2995-.9888.25793-2.0332 1.24693-2.3336 7.06483-2.1447 18.80933-1.7303 26.23073 2.6754.8908.5275 1.1822 1.6756.6544 2.5633-.5254.889-1.6776 1.182-2.5636.6542z" fill="#fff"/></svg>