<svg width="64" height="65" viewBox="0 0 64 65" fill="none" xmlns="http://www.w3.org/2000/svg">
<rect x="0.0078125" y="0.86792" width="63.9967" height="63.9967" rx="16" fill="white"/>
<g style="mix-blend-mode:multiply">
<circle cx="24.3094" cy="27.0899" r="13.1063" fill="url(#paint0_linear_1864_4001)"/>
</g>
<g clip-path="url(#clip0_1864_4001)">
<g filter="url(#filter0_b_1864_4001)">
<path d="M34.4547 26.4587L29.3469 26.3452C27.6667 26.3079 26.3047 27.64 26.3047 29.3205V49.5575C26.3047 51.2381 27.6667 52.6307 29.3469 52.6681L34.4547 52.7816C36.1349 52.8189 37.4969 51.4868 37.4969 49.8062V29.5692C37.4969 27.8887 36.1349 26.496 34.4547 26.4587Z" fill="url(#paint1_linear_1864_4001)" fill-opacity="0.01"/>
</g>
<path d="M48.0094 14.4133L42.9016 14.2998C41.2214 14.2624 39.8594 15.5945 39.8594 17.2751V49.8184C39.8594 51.4989 41.2214 52.8916 42.9016 52.9289L48.0094 53.0424C49.6895 53.0797 51.0516 51.7476 51.0516 50.0671V17.5238C51.0516 15.8433 49.6896 14.4506 48.0094 14.4133Z" fill="url(#paint2_linear_1864_4001)"/>
<g style="mix-blend-mode:multiply">
<path d="M34.4547 26.4594L29.3469 26.3459C27.6667 26.3086 26.3047 27.6407 26.3047 29.3213V49.5583C26.3047 51.2388 27.6667 52.6315 29.3469 52.6688L34.4547 52.7823C36.1349 52.8196 37.4969 51.4875 37.4969 49.807V29.57C37.4969 27.8894 36.1349 26.4968 34.4547 26.4594Z" fill="url(#paint3_linear_1864_4001)"/>
</g>
<path d="M21.4965 41.2171L14.8676 41.0697C13.6075 41.0417 12.5859 42.0408 12.5859 43.3012V50.0284C12.5859 51.2889 13.6075 52.3333 14.8676 52.3613L21.4965 52.5086C22.7566 52.5366 23.7781 51.5376 23.7781 50.2771V43.55C23.7781 42.2895 22.7566 41.2451 21.4965 41.2171Z" fill="url(#paint4_linear_1864_4001)"/>
</g>
<defs>
<filter id="filter0_b_1864_4001" x="18.6974" y="18.7371" width="26.41" height="41.6524" filterUnits="userSpaceOnUse" color-interpolation-filters="sRGB">
<feFlood flood-opacity="0" result="BackgroundImageFix"/>
<feGaussianBlur in="BackgroundImageFix" stdDeviation="3.80367"/>
<feComposite in2="SourceAlpha" operator="in" result="effect1_backgroundBlur_1864_4001"/>
<feBlend mode="normal" in="SourceGraphic" in2="effect1_backgroundBlur_1864_4001" result="shape"/>
</filter>
<linearGradient id="paint0_linear_1864_4001" x1="16.0188" y1="13.6617" x2="32.3608" y2="40.7455" gradientUnits="userSpaceOnUse">
<stop offset="0.232736" stop-color="#E6E8FF"/>
<stop offset="1" stop-color="#B2B6EF"/>
</linearGradient>
<linearGradient id="paint1_linear_1864_4001" x1="31.9008" y1="26.4019" x2="31.3161" y2="52.7118" gradientUnits="userSpaceOnUse">
<stop stop-color="#F4F5FF"/>
<stop offset="1" stop-color="#7E86FF"/>
</linearGradient>
<linearGradient id="paint2_linear_1864_4001" x1="45.4555" y1="14.3565" x2="44.5975" y2="52.9666" gradientUnits="userSpaceOnUse">
<stop stop-color="#9BA1FB"/>
<stop offset="1" stop-color="#7E86FF"/>
</linearGradient>
<linearGradient id="paint3_linear_1864_4001" x1="31.9008" y1="26.4027" x2="31.3161" y2="52.7126" gradientUnits="userSpaceOnUse">
<stop stop-color="#9BA1FB"/>
<stop offset="1" stop-color="#7E86FF"/>
</linearGradient>
<linearGradient id="paint4_linear_1864_4001" x1="18.182" y1="41.1434" x2="17.9312" y2="52.4294" gradientUnits="userSpaceOnUse">
<stop stop-color="#9BA1FB"/>
<stop offset="1" stop-color="#7E86FF"/>
</linearGradient>
<clipPath id="clip0_1864_4001">
<rect width="38.6291" height="38.6291" fill="white" transform="matrix(0.999753 0.0222167 0 1 12.5859 13.6672)"/>
</clipPath>
</defs>
</svg>
