<svg fill="none" height="712" viewBox="0 0 1088 712" width="1088" xmlns="http://www.w3.org/2000/svg" xmlns:xlink="http://www.w3.org/1999/xlink"><clipPath id="a"><path d="m0 0h1068v704h-1068z" transform="translate(11 7)"/></clipPath><g clip-path="url(#a)"><path d="m869.4 368.7c-34.5 18.6-60.2 34.6-94.4 54.7 18.1 26.1 27.7 42.6 46.2 66.3 42.6-23.7 61-37.2 94.4-61.3-16-22-26.8-40.4-43.2-61.1z" fill="#e6e5f4"/><path d="m869.4 342.8c-34.5 18.6-60.2 34.6-94.4 54.7 18.1 26.1 27.7 42.6 46.2 66.3 42.6-23.7 61-37.2 94.4-61.3-16-22-26.8-40.4-43.2-61.1z" fill="#fff"/><path d="m1013.8 291.7c5.9 17.7 12.6 30.3 21.2 47.6 14-3.3 35.5-17.2 35.6-18.1.1-.8-12.8-30-21.8-45.1-11.4 3.2-35 15.6-35 15.6z" fill="#e6e5f4"/><path d="m694 193.6 5 81.4a59.7 59.7 0 0 1 20.7-3.8l31.7-2c2-.1 4.5-.4 5.7-2.2 1-1.5.5-3.5.2-5.2-5.3-25.5 1-52.5-5-77.8-20 1.3-39.7 4.3-59.1 9" fill="#dedaf3"/><path d="m49.3 331.2c2-.2 29.6 24.6 41.5 35.8a245 245 0 0 1 -33.5 32.5c-17.2-14.5-27-25-40.7-37.1 0 0 31.2-31 32.7-31.2z" fill="#d7d7ef"/><path d="m378.4 52.4 46.7 9.5c1.9.4 2.7-2.6.8-3-15.6-3-31.1-6.3-46.6-9.4-2-.4-2.7 2.5-.9 2.9zm-5.6 14.8c15.9 2.2 31.2 6.6 46.8 10 2 .4 2.7-2.5.8-2.9-15.6-3.4-31-7.8-46.8-10a1.6 1.6 0 0 0 -1.8 1 1.5 1.5 0 0 0 1 1.9zm-4.2 16.8c7 1 13.9 2.3 20.7 4.1 7.4 1.8 14.9 3.6 22.5 4.8 1.9.3 2.7-2.6.8-3-14.8-2.2-29.1-7.2-44-9-2-.2-1.9 2.8 0 3zm-7.5 15.2c13.8 4 27.7 7.8 41.8 10.7 2 .4 2.8-2.5.8-3-14-2.8-28-6.6-41.8-10.6a1.5 1.5 0 0 0 -.8 2.9z" fill="#fff"/><path d="m98 464c-5.1-6.8-8.4-10-12.6-13.2-4.3-3.2-11.8-4.2-21 1.1-10.7 6.2-20.8 13.4-31.2 20.1-3.5 2.3-7.2 4.8-9 8.6-2.8 5.9-.1 12.7 2.6 18.5a400.4 400.4 0 0 0 34.7 59.3l.6.7a38.6 38.6 0 0 0 18.4 9.6 11 11 0 0 0 4.8-1.8 272 272 0 0 0 38.1-26.9c2.1-1.8 4-3.7 5.9-5.8 1.6-2 2.3-5.4 2-7.5-.4-6.6-6.3-12.3-9.3-18.2 4-3 8.8-5.6 10.6-10.1 2.6-6.4 0-13.7-3.3-19.7-2-4-4.8-7.7-8.1-10.7a20 20 0 0 0 -12.2-5.3 37 37 0 0 0 -11 1.3z" fill="#8ba3a5"/><path d="m80.3 632.6c-3 4-6.6 7.7-10.6 10.9a4 4 0 0 0 -1.2 1.2c-.3.8-.3 1.6 0 2.4l1.7 9.4c0 .6.3 1.3.8 1.4h1l5.6-1.8c.9-.2 1.7-.5 2.5-1 1-.6 1.8-1.3 2.6-2.1l11-11.1c.3-.3.6-.6.7-1 0-.7-.5-1.2-1-1.6a44.7 44.7 0 0 0 -12.2-7.4l-1 .7zm107.7-7.1c2.2 1 4.8.7 7.2.3 2.3-.7 4.8-1 7.2-1.2.2 5.9 0 11.7-.7 17.5-1.6-.5-3.3-.8-5-.8a43 43 0 0 1 -11.8-3.5 4 4 0 0 1 -1.3-2.4c-.6-2.8.7-6.1 3.3-7.3l1-2.6z" fill="#edeef6"/><path d="m239 515 31 25c4.3 3.6 7.2-2.5 11 1.7 2.6 3 6.4 16 8.7 19.1l14 20c5 7 10 14.1 13 22.2 3 8 3.7 17.3.1 25.2-3 6.8-9.2 11.9-16 15.2a87.6 87.6 0 0 1 -21.5 6.3c-8.2 1.6-16.6 3-25 3-5.8 0-11.6-.7-17.4-1.1a162 162 0 0 0 -32.7.9c-2 0-3.9 0-5.8-.3 0 0-.8-22.9-.4-32 0-1.3.2-2.6.7-3.8 1.2-2.6 41.9-3 53.5-5.2-8.6-8.5-18.3-18-20.3-24.6 0 0-62 27.2-95.8 50.5-1 .7-19 15-26 8-5.6-5.5-11.5-3.4-16.2-4-7-.8-11-7-14-14 10.4-16.7 23.2-22.7 39.3-34 16.1-11.1 33.1-21.3 47.7-34.5 10.7-9.6 20.1-20.9 31.4-29.9s25.3-15.8 39.7-14.5" fill="#20267f"/><path d="m323.7 418.8c6 5.4 9.7 11 16 16 1.4 1 2.9 2.2 4.7 2.4 1.3 0 2.4-10.7 3.6-11.1 25-9.5 63.3-22.1 73-26.6 1 5.7-.3 11.6 1 17.1 3 11.4 19.3 21.4 19.3 21.4-7 13.5-30 33.1-38.5 37.4-13.4 6.7-33.3 13.2-48.2 11.7a119.3 119.3 0 0 1 -22.3 38.6c-8.4 9-16 16.3-26.7 22.4s-26.9 8-39 6c-17.7-3.2-30.8-22.6-38-39.1 0 0 4-10.8 6.2-17.7 6.5-20.4 11.6-40.6 23.7-58.3-4.4-1.2-4.2-2.4-8-5-2-1.4-4-3-6.4-3.8-4.3-1.3-8.8.6-13.2.9-10.4.8-19.5-6.7-25.9-14.8-3-3.7-5.7-7.8-6.8-12.4-1.2-4.6-.6-9.9 2.5-13.5 2.1-2.3 4.9-4 7.9-4.8 8.9-3.1 18.7-2.5 28-1a83 83 0 0 1 17.1 4.5c6.3 2.5 12.3 6.2 19 7.7 11.7 2.6 24.5-1.8 35.7 2.5 6.8 2.6 10 8.1 12 15z" fill="#fff"/><path d="m453 388.8c15.7-13.3 32.2-25.7 48.6-38a364 364 0 0 0 63.9-61.4c.4-.3 1-.6 1.5-.7 1.8-.1 3 1.9 3.2 3.6.5 4.1-1.7 8-4.4 11.2-2.7 3-6 5.5-8.8 8.5-8.5 9.4-10.2 23-16.4 33.9-3.7 6.6-9 12.1-14.2 17.5-17.9 18-37 34.6-57.3 49.7-.7.5-4.5 4.4-5.4 4.6-1.3.3-3-3.6-4.2-4.3-8-4.9-9.5-15.8-6.5-24.6" fill="#f1b69c"/><path d="m909.5 234.8a244.9 244.9 0 0 1 -85.2 81.3c-11 6.6-22.3 12.5-33.6 18.3a292.4 292.4 0 0 1 -43.9 19.8c-30 9.7-61.5-2.6-93-1.1-22.8 1-57.2 26.3-87.9 24.7-10.1-.6-21-3.1-28-10.6-10.6-11.4-8.2-30.7 1.1-43.2s23.9-20 37.9-27c21.5-10.8 44-21.8 68-22.3 10.5-.2 21.2 1.6 31.5-.5a66 66 0 0 0 23-10.6 95.9 95.9 0 0 0 37-42.3c7.1-17.7 6-39.3-5.8-54.2a22 22 0 0 0 -12.7-8.6c-3.4-.6-6.8 0-10.1.5-18.4 2.6-37 1.8-55-2.5a153.2 153.2 0 0 1 -77.4 67.2c8.6 46-15.6 79.8-45.1 104.7-8.8 7.4-17.1 12.7-28 9.1-9.7-3.1-18-10.2-17.1-20.3l.5-13.3s-21-23.4-20.3-37.5c.6-15.3 2.6-49.8 2.6-49.8-14-8.1-22-24-24.4-40a56.4 56.4 0 0 1 4.6-34.7c4-7.7 10.3-14 17-19.4 24.3-19.7 55.3-30.9 76-54.3 6.3-7.2 11.6-15.5 19.2-21.5 7.5-6 15-6 24.7-3.8 5 1.1 12.8 3.2 12.8 3.2s25.8-21.7 40-25c14.4-3.4 24.6-5.4 38.5 5.3 20.4-10.7 24.8-15 40.7-18.2 23.5-4.7 51.8 5.6 74.8 12.3 32.8 9.4 69 9.8 98 28 26 16.4 42.4 45.9 46.6 76.4 4.2 30.6-2.8 61.9-15.7 89.9z" fill="#f48460"/><path d="m343.1 386.5c1.4-3 .6-14 2-17 2.9-6 5-12.4 14-16.8 8.2-4 16.7-3 20-4.9 4.4-2.5 9.2-4.2 14.2-5 3.4-.5 7 0 10.1 1.6 8 3.7 5 11 3.7 13.4 3.2-1.1 5.3.9 6.4 3.2 1.1 2.1 1.1 6.4-1 9.6-2.7 4-7.5 5.2-12.4 5.4-4-2.5-9.3-4-13.3-6.5-1-.5-.5-2-1.6-2.2a8 8 0 0 0 -3.2.5l-12.6 3.8c-1.2.4 3.7 5.4 2.7 6.2-1.1 1-1.5 2.6-2 4-1 3-5.5 3.4-7 6-.4.7-3.7-.8-4.3-.4-1.5 1-3.7.3-5.4-.6-3.8-1.8-4.4 2.5-8.2.6" fill="#20267f"/><path d="m406 394.2-5.3-3.2s.2-6.8 0-8.6c-.7-6-.2-9.9-2.2-15.5-.3-.6-7.4 4.8-13.8-.5-.8-.6-3.2-3.2-3.2-3.2s-4.3 8.5-14 6.4c-.6-.2 1.3 6.2.6 9.3-1 4-4 7-6 9-6.5-5.3-15.8-8.8-22-1.4-5.3 6.2-5.2 13.5-2.7 16.9-.7.1-17.2 9.5-17 10.2 3 11.5 7.8 22.5 14.1 32.6a1.6 1.6 0 0 0 2.2.6 269 269 0 0 0 25.4-15.5c8.7 3.5 13 4.5 21.9 2.8 7.7-1.6 12.5-9.6 14.6-17.1l2-6.8s2.4-1.6 3.4-2.1c3.3-1.8 8.4-4.3 11.7-6.4.5-.4-7-5.8-9.7-7.5zm-229.1 21.5c-.7 2-2.6 3.2-4.3 4.3a153.7 153.7 0 0 0 -40.1 34.2 88 88 0 0 1 -24.6 12.4c-1.9.5-4.6 2.6-4.4 4.5.2 1.5 2 2.8 3.3 3.3-1.5 1-2.7 1-2.8 2.8 0 1.9 1.5 3.8 3.3 3.5a4 4 0 0 0 4.3 6.8 5.4 5.4 0 0 0 2.5 6 7.6 7.6 0 0 0 6.8.2 5 5 0 0 0 2.4-2c.3-.8.3-1.8.1-2.7a5.7 5.7 0 0 1 3.7-4.8c.8-.2 1.7-.4 2.5-.4 2.9 0 3 2.9 3.9 5.5 2.4-2.6 6.4-5.3 7.5-10.7.6-3-1.1-8.5-1.1-8.5 4.4-2.2 10.1-8 14.6-10.2 9.9-4.8 19.8-9.7 29-15.7-3.8-9.2-5.8-19-5.7-29l-1 .5z" fill="#f1b69c"/><path d="m77.5 651.5a31.3 31.3 0 0 1 13.4-5.8l.8.3a1.9 1.9 0 0 1 .6 1.3c.7 5-6.2 9.7-9.6 13.4-6 6.5-8.6 11-12.6 18.8a30.8 30.8 0 0 0 -4.3 14.3 5.9 5.9 0 0 1 -2.3 4.5c-2 1.5-3.5 2.7-5.8-.2-1.2-1.5-2-3.3-2.3-5.2-1.2-8-2.5-16.8 1.8-23.6 1.5-2.5 3.7-4.5 5-7.1 1.4-2.6 1.8-6-.2-8.2l-6 1-1.7-6.5c-.2-.6-.2-1.2-.1-1.8.2-.8.8-1.4 1.5-1.8 3.9-3 13.5-3.2 18-4.8 3.2 4.8.9 7 2.4 11.4m110.2-16.8 3.8-8.9a1.2 1.2 0 0 0 -.2-1.5l-7.6-11-7.4 7.7c-.2.2-.4.5-.5.9a38.6 38.6 0 0 0 2.7 5.1l-2.6 2.9c-.1.2-.4.4-.7.5a2 2 0 0 1 -1.2-.1c-2.4-.8-5.1 0-7.5 1a35.7 35.7 0 0 0 -20.1 24.7c0 .2 0 .5.2.8l.7.5a7.2 7.2 0 0 0 5.8-.2c1.8-1 3.4-2 4.9-3.4 2.7-2.4 5.6-4.6 8.7-6.4 3.1-2 6.7-2.9 10.4-2.8 3.7.2 7.1 1.8 10.5 3.4 1.6.9 3.7 1.7 5.2.6a3.6 3.6 0 0 0 1.2-3.9c-.5-1.3-1.3-2.6-2.2-3.6l-4.6-5.8.5-.6z" fill="#8ba3a5"/><path d="m201.9 388.8c-1.3 6.7-2.7 16.2.7 22 1.5 2.3 3.4 4.3 5.5 6 4.8 4.3 9.9 8.1 15.2 11.6 1.2.8 2.4 1.8 2.4 3.2 0 .8-.4 1.6-1 2.2-2.3 3.4-4.8 6.8-7.5 10a4 4 0 0 1 -1.6 1.4c-.7.2-1.5.2-2.1 0l-8-1.5c-.4 2-1.2 3.9-2.3 5.6-.2.4-.6.8-1.1 1h-1.1l-10.2-1.2c-2.4-.3-5-.7-6.8-2.4-1.2-1.2-2-2.6-2.5-4.2a67 67 0 0 1 -4.4-23c-.2-3.6.4-7.2 1.7-10.6 2-4.3 5.8-7.5 9.6-10.4 3.7-3 6-5.4 10.3-7.5zm219.1 10.7a51 51 0 0 0 2 21.3c2 7 3 14.5 9.8 17.2.9.4 8.7 3.1 15-1 6.2-4.3 6.4-6.2 10.6-8.6 4.3-2.4 4.3-4.3 7.5-9.6-4.1-2.3-6.3-7.8-9-11.7-3.7-5.5-3.3-12.7-2.7-19.3a15 15 0 0 0 -10.9.8c-1.8 1-3.5 2.2-5.2 3.4h-6.4c-4.8-.1-10.7 7.5-10.7 7.5z" fill="#dedaf3"/><path d="m559.2 107.3c-11.9 8.1-23 17.4-33.1 27.6a81.6 81.6 0 0 0 -23 33.6c-2.1 7-2.9 14.3-3.8 21.5l-3 23.5-5.8 46.3-6.5 52.2c-.3 1.9 1.7 3.5 3.4 3.5 2 0 3.3-1.6 3.5-3.5a424769 424769 0 0 1 14.3-114.3c1-7 1.6-14.2 3-21.1a53.8 53.8 0 0 1 7.2-18.6 91.6 91.6 0 0 1 12.2-14.9c10.8-11 22.3-21.3 35.2-29.9a3.5 3.5 0 0 0 1.2-4.7 3.5 3.5 0 0 0 -4.7-1.3z" fill="#232980"/><path d="m494.5 257.6c2.7 1 5.3 2.3 7.9 3.7 2.2 1.2 4.2 2.8 5.9 4.8a23 23 0 0 1 4.1 15.2c-.1 6.8-1.8 13.4-3 20-1.2 5.6-2 11.8-4.7 16.7-1.3 2.2-3.2 4-5.4 5.2l-.5.2-1 .3-1 .2-.4.1h-.8c-.3 0-1.5-.2-.8 0-.3 0-.5 0-.7-.2a7.2 7.2 0 0 1 -.8-.2 3.6 3.6 0 0 0 -4.8 1.2 3.5 3.5 0 0 0 1.3 4.8c6 2.8 13 .8 17.6-3.8 4.9-4.8 6.5-11.8 7.8-18.3 1.4-7.5 3.2-15 4-22.7.7-6.8 0-14-3.6-20.2-3.8-6.7-10.7-10-17.5-13-1.8-.8-3.7-.5-4.8 1.2-.8 1.5-.5 4 1.3 4.8zm99.5-167.8 59.5-39.8 17-11.3a3.5 3.5 0 0 0 1.2-4.8 3.5 3.5 0 0 0 -4.8-1.2l-59.5 39.8-16.9 11.3a3.5 3.5 0 0 0 -1.2 4.7 3.5 3.5 0 0 0 4.7 1.3zm-124.6 123.2c-.1-13-.1-26 2.8-38.5a62.9 62.9 0 0 1 18.8-32.8c4.8-4.9 10-9.5 15-14.2a1550.4 1550.4 0 0 1 49.4-44 2002 2002 0 0 1 38-32c1.4-1.2 1.2-3.7 0-4.9a3.5 3.5 0 0 0 -4.9 0c-23 19-45.7 38.4-68 58.3-10.8 9.8-21.8 19.5-32.2 29.7-5 4.8-9.5 10-13.4 15.7a66 66 0 0 0 -8.3 18.2 157.4 157.4 0 0 0 -4.1 44.4 3.5 3.5 0 1 0 6.9 0zm249.3-53.1c6.2-2.2 12.3-4.6 18.4-7.3 5.4-2.4 10.9-4.8 14.5-9.6 1.2-1.5.3-4-1.2-4.8a3.5 3.5 0 0 0 -4.8 1.3c-1.3 1.6-3 2.9-5 3.8-2.4 1.3-5 2.4-7.4 3.5-5.4 2.4-10.8 4.5-16.4 6.4a3.6 3.6 0 0 0 -2.4 4.3 3.5 3.5 0 0 0 4.3 2.4zm-161 209.7a17 17 0 0 1 -.7-.8l-.3-.4a9.8 9.8 0 0 1 -.8-1.3c-.2-.6.2.4 0-.2a12.4 12.4 0 0 1 -.8-2.7v-3.8s0 .5 0 0a15 15 0 0 1 1-3.2l.2-.5.5-1.1c3-5.3 8.9-8.8 14.2-11a82.9 82.9 0 0 1 33.6-6.2 25.4 25.4 0 0 1 9.1 2.6 21.1 21.1 0 0 1 10.7 15 3.5 3.5 0 0 0 4.3 2.4 3.5 3.5 0 0 0 2.4-4.3 28.2 28.2 0 0 0 -11.8-17.8c-7-4.8-15.6-5.4-23.8-4.7-8.8.8-17.4 2.8-25.6 6a37.3 37.3 0 0 0 -18.6 13.7c-4.4 7-4.5 17 1.4 23.2 3.2 3.2 8-1.7 5-4.9zm-23.9-20.7a60.4 60.4 0 0 1 13.8-25.7 92.2 92.2 0 0 1 25-19.3 156 156 0 0 1 16.4-7.7 3.6 3.6 0 0 0 2.4-4.2c-.5-1.7-2.5-3.2-4.3-2.5-20.9 8.5-41.3 20.7-53 40.6a63 63 0 0 0 -7 17 3.5 3.5 0 0 0 6.7 1.8z" fill="#232980"/><path d="m520.6 341.5c-3.1-2.7-3.7-11.2-1.9-14.9 2-3.7 4.5-5.3 7.2-8.5 5.5-6.3 8-11.7 9-20 .3-2.1 2.9-5 4.7-6a4.2 4.2 0 0 1 3.6 0c2.9 1.3 4.4 4.7 4.4 7.8s-1.2 6.1-2.4 9c-1 2.5-1.3 5.8-2.3 8.3" fill="#f1b69c"/><path d="m327.6 451.7-.4 4.4v1.3c.3.7 1 1.1 1.5 1.6l2 2a7 7 0 0 0 4.2.8l4.6-.2.5-.1c.2-.2.3-.3.3-.6l1.4-4.3c.3-.6.4-1.2.4-1.9a32.2 32.2 0 0 0 -5-7.7c-.5 0-1 0-1.3.3l-8 3.8" fill="#bcbbe3"/><path d="m338.2 460a24.6 24.6 0 0 1 -1.3 21.3 41 41 0 0 1 -14 14.1c-8.8 5-45.5 5.2-57.3 3-3.2-.6-3-2-12-8 .1-1.9 13-12 13-12 3-3 19.2-2.6 26.7-1.4 5.1.9 10.8 2.1 16 2.2 5.3 0 11.6-3 15.6-6.2 3.6-3 5.5-7.5 6.8-12z" fill="#bcbbe3"/><path d="m383.5 394 1.1-1.4.3-.5c.1-.1.3-.2 0 0l.3-.2 1.4-1.4c-.1.2 0 .1 0 0l.4-.2.8-.5.8-.4c.2-.1-.2 0 0 0l.5-.2 1.6-.5c.1 0 .6 0 0 0h2.7a2.1 2.1 0 1 0 1.1-4 13 13 0 0 0 -8.5 1.2 14.9 14.9 0 0 0 -4.8 4.2l-.3.5c-.1.2-.3.2 0 0l-.4.4a2.1 2.1 0 1 0 3 3z" fill="#232980"/><path d="m394.3 387c.7 1.9.8 4 .4 5.9-.2.7-.5 1.4-1 2a1.5 1.5 0 0 1 -2 0l-.6-1.4a11 11 0 0 1 .2-5.1" fill="#20267f"/><path d="m392.9 387.4.5 2v2.5l-.2 1-.2.4c-.1.3.1-.2 0 .1 0 0-.4.5-.1.2l-.2.2s-.1 0 0 0c.1-.1 0-.1 0 0h-.1.3-.2c.2 0 .2 0 0 0h.1v-.1c.1.3 0-.1 0-.2l-.1-.5-.1-.3s0-.2 0 0v-2.5c0-.2 0-.2 0 0v-.2l.2-1a1.5 1.5 0 0 0 -1-2 1.5 1.5 0 0 0 -1.8 1c-.4 1.5-.5 3-.4 4.4s.3 3.2 1.8 4a3.1 3.1 0 0 0 4-1.1 8 8 0 0 0 1.1-4 12 12 0 0 0 -.6-4.6 1.5 1.5 0 0 0 -2.9.8h-.1zm-9.7 23.6a28.8 28.8 0 0 0 5.1 6.4 11 11 0 0 0 8 3.1 2.1 2.1 0 1 0 0-4.2h-1.3c-.1 0-.2 0 0 0l-1.7-.5c-.1 0-.2 0 0 0l-.4-.2a8 8 0 0 1 -.7-.4l-.3-.2-.2-.1-.6-.6-2.3-2.5-.6-.7-.1-.2c0 .2.1.2 0 0l-.2-.3-1-1.6a2.1 2.1 0 0 0 -3-.8 2.2 2.2 0 0 0 -.7 3v-.1zm.4-27.3a16 16 0 0 1 5.4-2.7l.8-.2h.4l1.5-.1h1.3c-.2 0-.2 0 0 0l1.8.5a2.1 2.1 0 0 0 2.6-1.5 2.2 2.2 0 0 0 -1.5-2.6c-5-1.6-10.2-.1-14.4 2.9a2.2 2.2 0 0 0 -.8 2.9 2.1 2.1 0 0 0 2.9.7zm-36.1 6.1 3.9 7.4 1.8-3.2c-3 .1-6 .6-8.9 1.3a2.1 2.1 0 0 0 -1.4 2.6 2.2 2.2 0 0 0 2.5 1.4l4-.7c.2 0 .7-.2.2 0l.4-.1 1-.1 2.2-.2a2.1 2.1 0 0 0 1.8-3.1l-3.9-7.4a2.1 2.1 0 1 0 -3.6 2.1zm-9.1 16.5c3.6 2.7 8.3 3 12.7 2.8l-2.1-2c-.2 3 .2 6 1.1 9 1.2 3 2.8 5.6 5 8a2.1 2.1 0 0 0 3.6-1.6c0-.5-.2-1-.6-1.5-1.7-1.8-3-4-4-6.3-.8-2.5-1-5-1-7.6a2.1 2.1 0 0 0 -2-2.1c-3.7.2-7.5 0-10.6-2.3a2.1 2.1 0 0 0 -2.9.8 2.1 2.1 0 0 0 .8 2.8zm-21.6 52.2a1082.7 1082.7 0 0 0 45.6-24.4c2.3-1.4.2-5-2.2-3.7-12.1 7.2-24.7 13.7-37.2 20.2a543 543 0 0 1 -8.4 4.3c-2.4 1.2-.2 4.9 2.2 3.6z" fill="#232980"/><path d="m319 414.1-1.8 8a1.5 1.5 0 0 0 2.9.8l1.7-8a1.5 1.5 0 0 0 -2.2-1.7c-.3.2-.6.5-.7.9z" fill="#308ae8"/><path d="m314 439a107.7 107.7 0 0 0 -1.4 14.1c-.2 1.5 0 3 .4 4.5a2.2 2.2 0 0 0 2.6 1.5 2.1 2.1 0 0 0 1.5-2.6 9.5 9.5 0 0 1 -.3-3.7 120.8 120.8 0 0 1 1.2-12.6 2.2 2.2 0 0 0 -1.5-2.6 2.1 2.1 0 0 0 -2.6 1.5zm20.8 10.4 13.8 16.8a2.1 2.1 0 0 0 3.7-1.5c0-.6-.3-1.1-.6-1.5l-13.9-16.9a2.1 2.1 0 0 0 -3 0 2.2 2.2 0 0 0 0 3z" fill="#232980"/><path d="m354.7 435c-2.5 9.6-4.6 19.3-6.3 29.2a2.2 2.2 0 0 0 1.4 2.6 2.1 2.1 0 0 0 2.6-1.5c1.7-9.8 3.9-19.6 6.4-29.3.7-2.6-3.4-3.7-4-1zm-178 4.8c1.6 3.7 3.4 7.3 7 9.6 2.4 1.6 5.1 2.7 8 3.3 2.5.5 5.5 1.3 8 .7a13.6 13.6 0 0 0 8.8-6.3c1.4-2.4-2.3-4.5-3.7-2.1a9.5 9.5 0 0 1 -5.9 4.3h-.2c-2.2 0-4.4-.2-6.5-.8-2.3-.5-4.5-1.4-6.5-2.7-2.8-2-4.1-5.2-5.4-8.2a2.1 2.1 0 0 0 -2.9-.7 2.2 2.2 0 0 0 -.7 2.9z" fill="#232980"/><path d="m197.5 439.6c2.6 2.7 5.5 5.1 8.8 7a10.9 10.9 0 0 0 10.4.5c2.8-1.2 4.9-4 6.7-6.5 2-2.4 3.5-5 4.6-7.9.8-2.5-3.2-3.7-4.1-1-1 2.2-2.2 4.3-3.7 6.2-1.3 1.8-3 4.1-5 5.3-1.2.6-2.5.8-3.8.8a6.7 6.7 0 0 1 -3.7-1.5 31.9 31.9 0 0 1 -7.2-5.9c-1.8-2-4.8 1-3 3zm-48 25.2c11.3-5 22.3-10.5 33-16.7 2.3-1.3.1-5-2.2-3.6a330 330 0 0 1 -32.9 16.6 2.1 2.1 0 0 0 -.7 3 2.2 2.2 0 0 0 2.9.7zm101.5 87.5a43.3 43.3 0 0 0 29-13.3 2.2 2.2 0 0 0 0-3 2.1 2.1 0 0 0 -3 0 38 38 0 0 1 -26 12c-2.7.1-2.7 4.4 0 4.2z" fill="#232980"/><path d="m287.2 526.5c3.4-4.8 7.4-9.2 11.9-13z" fill="#308ae8"/><path d="m288.5 527.3c3.4-4.7 7.3-9 11.7-12.8a1.5 1.5 0 0 0 -2.2-2.1 80.4 80.4 0 0 0 -12.3 13.9 1.5 1.5 0 0 0 2.8 1z" fill="#308ae8"/><path d="m357.6 486.4a50.1 50.1 0 0 0 3.3-7.6c0-.3-.2-.6-.3-.8-.3-.5-.7-.9-1.3-1-.5-.2-1.1-.1-1.6.2s-.8.7-1 1.2l-.5 1.4.2-.5a46.5 46.5 0 0 1 -2.8 5.8 2.1 2.1 0 0 0 1 2 2.1 2.1 0 0 0 3-.7zm-25.6-21.8c2.4.4 4.7.6 7 .5a2.1 2.1 0 1 0 0-4.3c-1.6.1-3.3 0-5-.2l.6.1-1.4-.2c-.5-.1-1.1 0-1.6.2-.5.3-.9.7-1 1.3a2.1 2.1 0 0 0 1.5 2.6zm119.4-75.8c-.2 3.7 0 7.3.5 11 .5 3.3 1.2 7 3 10 1.1 1.9 2.4 3.7 3.7 5.4s2.7 3.8 4.6 4.9c2.4 1.3 4.6-2.3 2.2-3.7-1.3-.6-2.5-2.5-3.5-3.9l-3.3-4.8c-1.6-2.6-2.1-5.9-2.6-8.8-.5-3.3-.6-6.7-.4-10 .1-2.8-4.1-2.7-4.2 0zm81.4-80.8c2.9-.1 5.5-1.4 7.4-3.5 2-1.8 3.5-4.2 4.2-6.8.4-1.3.4-2.7 0-4a2.1 2.1 0 1 0 -4 1v.4c.2.5 0-.4 0 0v.7c0 .6.2-.3 0 0v.4l-.2 1-.2.3c-.2.6.1-.2 0 .2l-.4.8a11.2 11.2 0 0 1 -1.4 2l-.3.4-.8.8-.8.7-.2.1-.3.3a9.6 9.6 0 0 1 -1.4.7h.1-.2a9 9 0 0 1 -1 .3c-.5.2.4 0 0 0h-.5a2.1 2.1 0 1 0 0 4.3zm-439.6 159.6 4.3-1.8a2 2 0 0 0 1-1.3 2.2 2.2 0 0 0 -1.5-2.6l-.6-.1a2 2 0 0 0 -1 .3l-4.3 1.8c-.5.3-.8.8-1 1.3a2.2 2.2 0 0 0 1.5 2.6l.5.1c.4 0 .8 0 1.1-.3zm24.4 44.4c2.2-.7 4.3-1.7 6.3-3 .4-.3.8-.7 1-1.3a2.1 2.1 0 0 0 -2-2.6c-.4 0-.8 0-1.1.3-1.3.8-2.6 1.5-4 2.1l.5-.2-1.8.7a2.2 2.2 0 0 0 -1.5 1.8 2 2 0 0 0 1 2c.5.4 1.1.4 1.6.3zm-49.7-58.3c9.5 16.6 19 33.2 29.9 48.9 4.4 6.3 9.7 12 13 19 1.1 2.7 1.9 5.7.4 8.2-1 1.6-2.6 2.8-4 4.1a135.9 135.9 0 0 1 -24 17.7c-2.4 1.4-.2 5 2.1 3.7a130.7 130.7 0 0 0 28.2-21.5 11.2 11.2 0 0 0 2.6-9.1c-.6-3.8-2.7-7.3-4.7-10.5-2.3-3.5-4.8-6.8-7.3-10.1a299.2 299.2 0 0 1 -15.5-23.4c-5.9-9.6-11.5-19.4-17-29.1-1.4-2.4-5-.2-3.7 2.1zm41.9 47.5a76.4 76.4 0 0 0 12.6-4c1.9-1 3.3-2.5 4-4.5a5.7 5.7 0 0 0 -1.2-5.8 2.1 2.1 0 1 0 -3 3c.5.4 0-.2.1.1.2.3.2.4.1.1l.1.5v.7l-.1.3-.2.3-.2.3-.3.3-.6.5a9.9 9.9 0 0 1 -1.6 1h-.3c.2 0 .1 0 0 0a60 60 0 0 1 -10.5 3.1 2.1 2.1 0 0 0 -1.5 2.6 2.2 2.2 0 0 0 2.6 1.5zm74.7 132.7c-2.5.7-4.8 1.6-7.1 2.8a25.5 25.5 0 0 0 -6.2 4.4 2.1 2.1 0 0 0 3 3l1.4-1.2.7-.6c-.2.1-.1.1 0 0l.4-.3 2.8-1.7 1.4-.6c.2-.1.2-.1 0 0l.5-.2.7-.3a91.3 91.3 0 0 1 4.3-1.6 2.1 2.1 0 0 0 .7-2.2 2.1 2.1 0 0 0 -2.6-1.5zm-26 9.9 2 4.2a2.1 2.1 0 0 0 4-.5v-.6c0-.3-.1-.7-.3-1l-2-4.2a2.1 2.1 0 0 0 -2.9-.8c-.5.3-.8.8-1 1.3v.6c0 .3 0 .7.2 1zm-5.5 4.6.5.6-.3-.4c.6.7 1 1.5 1.4 2.4l-.2-.5.6 1.6a2.1 2.1 0 0 0 2.6 1.5 2.1 2.1 0 0 0 1.4-2.6c-.5-2-1.5-4-3-5.6-.4-.4-1-.6-1.5-.6a2.1 2.1 0 0 0 -2.1 2.1c0 .6.2 1 .6 1.5zm-91.6 36.8 3.2 1.5.8.3h.8a2.2 2.2 0 0 0 1.5-2.7 2.1 2.1 0 0 0 -1-1.2l-3.2-1.6-.8-.2c-.2-.1-.5-.1-.8 0a2.2 2.2 0 0 0 -1.1 3.3zm1.6-6.5 3.7 2.2c.5.2 1 .3 1.6.2a2.2 2.2 0 0 0 .5-4l-3.7-2c-.5-.3-1-.4-1.6-.3a2.1 2.1 0 0 0 -1.5 2.6c.2.5.5 1 1 1.3zm11.7-26.6a39.1 39.1 0 0 0 -2.9 17.5 2.2 2.2 0 0 0 2.1 2 2.1 2.1 0 0 0 2.1-2c-.3-5.6.6-11.2 2.7-16.4a2.1 2.1 0 0 0 -1.4-2.6 2.2 2.2 0 0 0 -2.6 1.5zm116-24.9 10.6.1a2.1 2.1 0 0 0 2.2-2.1 2.2 2.2 0 0 0 -2.2-2.1 173 173 0 0 0 -11.4 0 2.1 2.1 0 0 0 .8 4.1zm-114.4 15.4 5-5.4a104.5 104.5 0 0 1 4.1-4l.6-.5.4-.3c0-.1.5-.4 0 0 .5-.3.8-.7 1-1.3.1-.5 0-1.1-.2-1.6a2.1 2.1 0 0 0 -3-.7c-4 3-7.4 7-10.9 10.8a2.1 2.1 0 0 0 3 3zm365.4-231.2a61.5 61.5 0 0 0 8.3 18 2.2 2.2 0 0 0 2.9.7 2.1 2.1 0 0 0 .8-2.9c-3.6-5.2-6.2-10.9-7.9-17-.7-2.6-4.8-1.5-4 1.2z" fill="#232980"/><path d="m520.5 336.7c-.4-3.4 0-7 1.1-10.2a13 13 0 0 1 3-4.6c2-1.9 3.9-4 5.6-6.1 2.6-3.6 3.6-8 4.6-12.2.4-2.3 1-4.6 1.8-6.8.3-1 .9-1.8 1.6-2.5a2.8 2.8 0 0 1 2.7-.1c2.5.8 3.7-3.3 1-4.1a6.8 6.8 0 0 0 -6.6 1 12.2 12.2 0 0 0 -3.2 5.8c-1.4 4.4-1.8 9.1-3.6 13.4-2.3 5.4-7.9 8.3-10.3 13.6a26 26 0 0 0 -2 12.8c.3 2.7 4.5 2.7 4.3 0z" fill="#232980"/><path d="m120 272.9c9-.4 19.1 5.8 25.8 7.3 1.7-5.1-3.2-11.9-2.3-17.2v-.7c-.1-.5-.4-.9-.8-1.3-6.2-2.3-12.2-3.1-18.7-4.1l-3.3 15.6c0 .4 0 1 .3 1" fill="#dedaf3"/><path d="m11 166c5.2 15.4 12.5 32 17.7 47.4l32.8-10.6c-3.6-16.2-9-32-16-47a174 174 0 0 0 -34 9.9" fill="#fff"/><path d="m250 118.1a499 499 0 0 1 33.7-18.8c-1.4-2.5-2.1-9.3-.1-11.3 4.2-4.3 8-2.1 8.5-2.2.6 0 3.8-2 4.3-2.1 6.4-1 8.9 4.6 10.7 8.5 1.8 4-1.8 9.3-5.4 11.8-2 1.4-1.8 1.7-4.2 2.1-.9.2-4.8 0-5.5.4-.5.3-1 .7-1.4 1.2-11.7 12.2-26.4 21-39.3 31.8.2-6.5-1.4-21.4-1.4-21.4z" fill="#c58167"/><path d="m305.3 213.2c9-.4 19 5.9 25.8 7.3 1.7-5.1-3.2-11.9-2.3-17.2v-.6a4 4 0 0 0 -.8-1.3c-6.2-2.4-12.2-3.2-18.7-4.2-1.2 5.2-2.3 10.4-3.3 15.7-.1.4 0 1 .2.9" fill="#dedaf3"/><path d="m133 258.3c0-2-20-16-24.3-3.4-.8 2.1 1 4.8-.3 6.6-3.5 4.8-6.5 1.8-9.5 6.8s-.8 6.5-1 9c-.2 2.6-6 3-6.7 13.6-.2 4 3.2 8.5 6.7 8.6 3.5 0 8-7.1 11-9.7 10-8.4 10.4-9.9 15.1-10.4 9-1 10.8-3 10-6-1-4-7.7-4.5-7-7 .2-1.9 1-3.6 2-5.1s4-3 4-3z" fill="#20267f"/><path d="m141.4 142.4c-6 2.4-11.6 5.4-16.8 9-1.2.9-2.4 1.8-3.4 3s-2 2.6-2.7 4.1a243.6 243.6 0 0 0 -14 31.5c-.7 1.8-5.2 8.3-6.7 9.8s-4.5 8-1.7 10.7c.8.9 2.2.9 3.3 1.5l1.8 1.4a9 9 0 0 0 12.7-2.7c.5-1 1-1.8 1.7-2.6 1-1 2.6-1.3 4-2a6.9 6.9 0 0 0 3.3-6.4 8.2 8.2 0 0 0 -4-6.2c-.2-.2-.6-.4-.6-.8l.1-.6c3.8-7.6 7.7-15.2 11.7-22.7a4 4 0 0 1 1.2-1.5c.5-.3 1-.5 1.5-.5l8-1.4a3.5 3.5 0 0 0 2.6-1.4c.2-.5.3-1.1.3-1.8v-19" fill="#c58167"/><path d="m325.7 206.8a8 8 0 0 1 -4.1-1.8 4.1 4.1 0 0 1 -1.4-2.4c-.4-3 2.6-4.8 5.3-5.5 1.9-.5 3.8-.8 5.7-.9a7 7 0 0 0 3-.6c.7-.3 1.2-.9 1.7-1.5 4.2-5.7 3.8-12.3 7.6-18.3 4.9-8 11.7.1 11.1 7.6-.3 2.9-3.1 9.4-3.2 10.5-.3 2.5 2.4 6.7 1.9 9.2-1.2 5.5-4 4.9-5.4 9.6-.4 1.5 5 10.3-2.6 14.4-3.6 2-10.5-.7-13.7-3.3-3.2-2.5-7.3-2.9-6.5-4.8.6-1.3 3.7-5.9 4-7.3 0-1-.3-2.1-.9-3a3.5 3.5 0 0 0 -2.5-1.9z" fill="#20267f"/><path d="m196.7 164.4c.4 3.3.9 6.7 1.6 10 7.5-.7 14.8-.3 22.3-.8l2.8-.7c1.7-1.1 1-13.9.5-18.7l.4-.6a179 179 0 0 1 24.4-2.3l2.9-.3c.7-10.1-1.1-33.1-1.1-33.1-15.4.3-32.8-.3-48.1 0-2.8 0-4.3 3-7 3.7z" fill="#f38360"/><path d="m199.3 98c3.5-3 8.2-3.2 8.4-8 0-.4-1.7-8.2-2.2-8.5a20.7 20.7 0 0 0 -16.2-1 21 21 0 0 0 -11.4 11.7c-1.8 5-1.7 8.4 1 12.9 2 3.4 4.6 6.6 7.4 9.6.7.7 1.1-1.4 2.1-1.6.8-.2 1.6-.5 2.3-1 4.5-3 6.9-8.2 9-13.1" fill="#20267f"/><path d="m214.5 94.2c-.4-9.5-9-12.7-9-12.7s-.2 10-7.3 15.7c-4.4-3-11.5-1.7-13.5 3.7-1.2 3 .5 8.4 4.8 9.5-1 2-3.4 4.6-4.5 6.4-.7 1.3-3 4.3-3 4.3s2.4-.4 3.2 0a79.7 79.7 0 0 0 10.3 4.5l.3.1c1.3.2 3.7-4.8 4.7-6.3a13 13 0 0 0 14.4-5c1-1.5 1.5-3.2 1.8-4.8l.6-5.6 7.5-5.4s-7.8-3.5-10.3-4.4z" fill="#c58167"/><path d="m194.9 124.3c4.3-.3 19.8 10.3 18.1 28.9-.4 5-4.4 11.8-9.1 13.8.4 3.8.6 7.7.6 11.5a185 185 0 0 0 -36 5c.3-13.4.5-26.8 2.7-40 .5-3 1-6 2.7-8.7 2.7-4 7.4-6 11.9-7.9" fill="#dedaf3"/><path d="m139.3 172.4v-32c8-6.3 18.9-11 28.2-15.1a42 42 0 0 1 17.5-4.4c6 .1 12.3 2.8 15.4 8 2 3.5 2.5 7.8 2.5 11.9a38 38 0 0 1 -11.5 28.3c-.6.6-1.3 1-2 1.4l-2.3.7-27.5 5.6-.6-7.8-1 .1c-5.8 1.8-13 4-18.7 5.5m28.8 8.5c12-3 24.1-4.8 36.4-5.3.1 3.2 1 7 1 10.3 0 .3 0 .6-.2.9-.2.2-.6.3-1 .4l-38.3 6.5c.3-3.5 2.1-12.8 2.1-12.8z" fill="#f38360"/><path d="m163.4 100.4c-2.2 2-5 4.5-5.3 8.4-2.2-3.6-3.3-13.7-11.5-11-5 1.8-7.8 10-9.3 15-2-7.4-3.7-12.9-13.7-12.7-9 .2-11.5 11.9-10.7 19.9-2-6.8-6.6-12.3-11.5-13.4-5-1-10.2 7.3-11.9 13.8-4.5-21.6-23.2-9.4-21.9 1.6 1.2 9.5 13.2 16.1 17 16.5 3.9.3 8-.7 9.5-4.3 1.6-3.5 2-8 2.2-12.3 2 8 7.9 14.1 13.6 13.8 5.8-.4 10.6-7.4 10.5-15.7 4.8 5.1 11 5.6 16.7 4.4 4.2-1 9.2-4.1 10.7-9.7 3.3 4.2 7 7.4 11.3 7.3a10.1 10.1 0 0 0 7.7-3.8c2.1-2.5 1.4-5.7 1-9.8 6.8 3.8 7.8-4 9-8.2 1.4-4.4 4.3 2.9 1.6-1.5 0 0-9.6-3.2-15 1.8z" fill="#20267f"/><path d="m159.6 206.6c4.3-10.6 6.4-11.6 6.4-11.6s27.8-5.5 34.4-5.9c10.6-.6 16.1-2.7 26.5-4.8 10.7-2.2 17-2.2 27.8-1 12 1.1 44.7 7 55.4 12.4 1.4 14.5-.9 71-.9 60.2 0-.7-31-7.5-47-18.2-5.8-3.8-16-8.5-16-8.5s-27.4 3-37.6 4.4c4.5 11 23.5 39.9 24.1 48.7 1.1 16.1-6.3 22.3-13 26.2-11.4 6.5-61.3 7-87.4 1-1-25.7 6.5-32.1 7-54.3 22.1 2 21.7 5 41.2 17a61.7 61.7 0 0 1 -26.3-47.3c0-9.6 5.4-18.2 5.4-18.2z" fill="#f2c05f"/><path d="m182 85.3c-.8-2.3-1.3-6.6-7.5-8.5-5.2-1.6-11.3 3.9-11.3 3.9s-3-9.7-5.9-12.7c-2.5-2.6-5.9-5.7-9.4-5.4-5.6.5-10.4 6.8-14.6 12.6-1-6.9.2-14.6-7-16.6-7.3-2-13.3 4.3-17 9.9-1.5-6 .3-14.3-8.2-15.4-7.4-1-12.2 6.6-14.2 10 1.7-5 4-23.1-11.3-20.8-6.7 1-18.6 18-5.2 31.6 2.6 2.8 8.6 3.5 11.5 2.6 4.8-1.4 9.2-5 13.7-8.4.9 7.8 5.5 13.7 11 14.8 5.6 1.1 11.8-2.2 16.2-8-1 9 2.3 17 10.8 18.1 6 .8 13.4-6.8 16.7-14.6 1.7 8 7.8 11.5 13.7 13.2s11.7-2 18.3-5.7" fill="#20267f"/><path d="m190.6 58.3c-1.5-2.3-8.3-5.6-13.2-4.5 4.6-11.7-2.4-26.3-17.2-14.8.4-4.6.5-11.4-8.5-12.7-6-1-10.8 4-15.3 8.5-.4-8 2-17.2-5.1-22.3s-18.7-3.7-24 3.7c-3.6 5.2-4.8 14 1.4 18.3 5.5 3.8 12.4-2 16.8-7.6-1.3 5.8-3 12.4-.7 17 5.3 10.7 17.5 1.1 23.5-2.4 1.5 9.4 10.8 13.5 18.1 8.4-1.1 7.7 1.4 19.8 15.8 13.5-3.8 9.8 6 17.8 6 17.8-.7 2-.3 3.1.8 1.3 7-12.4 5.4-18.5 1.6-24.2z" fill="#20267f"/><path d="m208 91h.4-.4l1.2-.2h-.4 2-.3c.4 0 .7 0 1.1.2a1.5 1.5 0 1 0 .8-3c-1.9-.5-4-.4-5.8.4a1.5 1.5 0 0 0 1.4 2.6zm-17.7 10.2a78.7 78.7 0 0 1 2.7 3.7v-.8c0-.2.6-.8.3-.6-.2.2.5-.3.2-.2l-.3.2h.2-.7c-.3.2-.6.2-1 .3h.4-3a1.5 1.5 0 0 0 -1.4 1.5 1.6 1.6 0 0 0 1.5 1.5c1.2 0 2.5 0 3.7-.2.7 0 1.3-.3 1.9-.6a1.7 1.7 0 0 0 1-2 86 86 0 0 0 -3-4.4c-.2-.3-.5-.6-1-.7a1.5 1.5 0 0 0 -1.6 2.2v.1zm2.8 14.2c1.7 2.6 4.3 4.6 7.2 5.5l.6.1a1.5 1.5 0 0 0 1.3-1 1.5 1.5 0 0 0 -1-2l-.5-.1-.3-.1c-.2 0-.1 0 0 0l-.4-.2-.4-.2a13.8 13.8 0 0 1 -1.6-1l-.2-.1-.3-.3a20.3 20.3 0 0 1 -1.4-1.5c-.2-.2 0 0 0 .1l-.1-.2-.3-.4a1.5 1.5 0 1 0 -2.6 1.5zm-33.8 55.6c5.5-2 10.9-4.3 16-7 1.7-1 .2-3.6-1.5-2.7-5 2.6-10 5-15.3 6.8a1.5 1.5 0 0 0 -1 1.8 1.5 1.5 0 0 0 1.8 1zm-21.3-29.8c-.5 11-1 21.8-.5 32.7 0 2 3 2 3 0-.5-10.9 0-21.8.6-32.7 0-1.9-3-1.9-3 0z" fill="#232980"/><path d="m190 135c2-.2 4-.3 6-.2l5.8.1a1.5 1.5 0 0 0 0-3l-5.9-.1h-5.9a1.5 1.5 0 0 0 -1.5 1.6 1.5 1.5 0 0 0 1.5 1.5zm-2.1 10.6 7 .1c2.3 0 4.6.1 6.9-.1a1.5 1.5 0 0 0 1.5-1.5 1.5 1.5 0 0 0 -1.5-1.5c-2.3.2-4.6.1-7 .1l-6.9-.1c-2-.1-2 2.9 0 3zm3.2 9.6h9.6a1.5 1.5 0 0 0 0-3h-9.6a1.5 1.5 0 0 0 -1.5 1.5 1.5 1.5 0 0 0 1.5 1.5z" fill="#f4ce6e"/><path d="m249 118.6v20c0 2 3 2 3 0v-20a1.5 1.5 0 1 0 -3 0zm26.8-16.3a8 8 0 0 0 -2.2 1.3 2.7 2.7 0 0 0 -1 2.4 49.1 49.1 0 0 0 8.4 10.6 2.8 2.8 0 0 0 3-.6c.7-.8 2.8-1.3 2.8-3.4 0-2.2-4.7-6.3-6.7-8.4a4.6 4.6 0 0 0 -4.3-2zm10.1-9.1c1 .5 2 .9 3.2 1.1 1.1.4 2.3.5 3.5.3a3.5 3.5 0 0 0 2.5-2.4c.3-1 .2-2.2-.3-3.2a11 11 0 0 0 -2.2-2.6 1.5 1.5 0 0 0 -2.1 0 1.5 1.5 0 0 0 0 2l1 1.2.3.3c.2.2-.2-.3 0 0l.4.6c0-.4 0 0 0 0v.7-.2.5-.2l-.1.2-.1.1c.1-.1.2-.2 0-.1v.1c-.1.1 0 0 0 0-.1 0-.1 0 0 0h-.7c-.4 0 .2.1-.1 0l-.8-.1-1.6-.5-.8-.2-.4-.2c-.2 0-.2 0 0 0h-.2a1.5 1.5 0 0 0 -1.5 2.5z" fill="#232980"/><path d="m294.9 93 4.5-3.3c.4-.2.6-.6.7-1a1.5 1.5 0 0 0 -1-1.8 1.5 1.5 0 0 0 -1.1.2l-4.6 3.3c-.3.2-.5.5-.7.9a1.5 1.5 0 0 0 1.1 1.8 1.4 1.4 0 0 0 1.2-.1zm2.3 5.1 1.5-1.3.4-.3.2-.1.8-.6a53 53 0 0 1 3.3-2.3 1.5 1.5 0 0 0 .5-2 1.5 1.5 0 0 0 -2-.5 52.1 52.1 0 0 0 -6.8 5 1.5 1.5 0 0 0 0 2.2 1.5 1.5 0 0 0 2 0v-.2zm2.5 4.5 3.7-2.5c.3-.2.6-.5.7-.9 0-.4 0-.8-.2-1.1a1.5 1.5 0 0 0 -2-.6l-3.7 2.5c-.3.2-.6.6-.7 1a1.5 1.5 0 0 0 2.2 1.6z" fill="#232980"/><path d="m290.8 93.9a3.6 3.6 0 0 0 1 3.7c1 1 2.5 1.4 4 1.3l-1.6-1.5c0 1.5.4 3 1.3 4.1 1 .9 2.3 1.3 3.6 1.3a1.5 1.5 0 0 0 1.5-1.5 1.5 1.5 0 0 0 -1.6-1.5h-.2c-.3 0 .3 0 0 0l-.6-.1h-.1c-.2-.1-.2 0 0 0l-.2-.2-.2-.2.1.2-.1-.2c-.2-.1.1.3 0 0l-.2-.3c-.1-.3.1.3 0 0v-.4l-.2-.7v-.5a1.5 1.5 0 0 0 -1.5-1.5h-1a2 2 0 0 1 -.3-.1h-.2c0-.1 0-.2-.2-.2l-.1-.1-.1-.1-.1-.1c0-.1 0 0 0 0v-.2c-.2-.2 0 .2 0 0l-.2-.2v.1-.1c0-.3 0 .3 0 0l.1-.3a1.5 1.5 0 0 0 -1-1.8 1.6 1.6 0 0 0 -1.8 1h-.1zm-121.8 92.3a102.3 102.3 0 0 1 35-5.3 1.5 1.5 0 0 0 0-3 101 101 0 0 0 -35.7 5.4c-1.9.6-1 3.5.8 2.9zm-7.2 26.1c4.3.8 8.2-2 11-4.8 3-2.9 4.8-6.3 6.6-9.7 1-1.7-1.7-3.3-2.6-1.5-1.4 3-3.3 6-5.5 8.5a22 22 0 0 1 -4 3.3c-1.3 1-3 1.5-4.7 1.3a1.5 1.5 0 0 0 -1.8 1 1.5 1.5 0 0 0 1 1.8zm38.1 5.7c2.6 5.8 5.5 11.5 8.5 17.2 1 1.7 3.5.2 2.6-1.6a312.6 312.6 0 0 1 -9-17.5 1.5 1.5 0 0 0 -1.6 0 1.5 1.5 0 0 0 -.7 1.4c0 .2 0 .4.2.6zm109.1-21.3a1142.6 1142.6 0 0 0 -.7 58.6c0 2 3 2 3 0a1016 1016 0 0 1 .7-58.6c0-1.9-3-1.9-3 0zm-170.6 59.9c-.4 6.7-1.4 13.2-3 19.7a110.5 110.5 0 0 0 -3.4 31.7c.1 2 3.1 2 3 0-.3-7.4.1-14.9 1.4-22.2 1.1-5.6 2.7-11 3.6-16.7.7-4.1 1.2-8.3 1.4-12.5 0-2-3-2-3 0zm42.3 16.1a20.3 20.3 0 0 1 6.5 3l1 .7c.2.2-.2 0 0 0l.3.3.5.4a1.5 1.5 0 0 0 2.1 0 1.5 1.5 0 0 0 0-2.1c-2.8-2.4-6-4.2-9.6-5.2h-.6a1.5 1.5 0 0 0 -1.4 1.7 1.5 1.5 0 0 0 1.2 1.2zm-65.7-69.6-2.3 4.7c-.2.3-.3.7-.2 1.1l.7 1a1.5 1.5 0 0 0 2-.6l2.3-4.7c.2-.3.3-.7.2-1.1s-.4-.7-.7-1a1.5 1.5 0 0 0 -2 .6z" fill="#232980"/><path d="m106.7 283.9a18 18 0 0 0 2.7 3.3z" fill="#308ae8"/><path d="m105.4 284.7a28.7 28.7 0 0 0 3 3.6c.2.3.6.4 1 .4s.8-.1 1-.4c.4-.3.5-.7.5-1 0-.5-.1-.9-.4-1.1l-1.9-2.1.3.3-1-1.3a1.5 1.5 0 0 0 -2.7.4c0 .4 0 .8.2 1.2z" fill="#bdbce4"/><path d="m112.6 276.5c1 1.2 2.3 3.6 3.2 4.8z" fill="#308ae8"/><path d="m111.3 277.3c1.2 1.5 2 3.3 3.2 4.8.2.3.6.6 1 .7.3 0 .7 0 1-.2a1.5 1.5 0 0 0 .6-2c-1.1-1.6-2-3.3-3.2-4.8-.2-.4-.5-.6-.9-.7a1.5 1.5 0 0 0 -1.8 1 1.4 1.4 0 0 0 .1 1.1z" fill="#bdbce4"/><path d="m337 195 3.4 2.2z" fill="#308ae8"/><path d="m336.4 196.3 3.2 2.2a1.5 1.5 0 0 0 2-.6 1.5 1.5 0 0 0 -.5-2l-3.3-2.2a1.5 1.5 0 0 0 -2 .6 1.5 1.5 0 0 0 .5 2z" fill="#bdbce4"/><path d="m340.7 188.5 2.2 1.5z" fill="#308ae8"/><path d="m340 189.8 2.1 1.5.6.2h.6c.3-.1.7-.4.9-.7a1.5 1.5 0 0 0 .1-1.2l-.1-.3-.6-.6-2.2-1.5c-.3-.2-.7-.2-1.1-.1-.4 0-.7.3-1 .6a1.5 1.5 0 0 0 0 1.2v.4l.6.5z" fill="#bdbce4"/><path d="m492.1 574c-6.7-2.1-37.4-21-43.5-24.6-2.9-1.7-6.2-3.6-9.3-2.4a9.2 9.2 0 0 0 -3.6 2.8c-7 8.3-25.3 4.1-22.3 14.5 4.6-3.4 25.7-2.1 26.3-1.9 19.2 9 51.2 58.9 69.5 43.2 19.8-21.5-7.2-28.8-6.8-38.6zm158.6 54.2c8.4 12.2 16.5 26.2 30.6 29.2 1 .2 11.3-.8 11.4.4l-1 5c-1.7 3.7-8.5 2-12 3.7-3.3 1.4-6.9 2.2-10.5 2.4-3 .2-6.1.3-8.8-1-2.6-1.3-3.9-1.3-3.7-6.7-.1-1.2-.4-2.4-.7-3.6-.2-.8-.7-1.5-1.3-2-5-5.8-13.2-10.7-18.9-15.6-3.3-2.9-6.4-6-8.2-10.2l20.8-1" fill="#f0b63f"/><path d="m566.1 507.4s-19.1 1.6-34.5 11.6c-9.5 6-23.7 33-23.7 33l-31.8 13.6c2.6 12.9 6.8 28 59.1 56 20.1 10.7 26.1 7 34.4 8.6 5.7 1 10.9 3.5 16 6.2 21.9 11.7 56-3.4 64.2-7.4a1.6 1.6 0 0 0 1-1.2 1.6 1.6 0 0 0 -.4-1.3 434.4 434.4 0 0 0 -63-62.2c3.3-3.2 4.7-12.5 8-15.7 0 0-17.5-28.6-29.3-41.3z" fill="#f48460"/><path d="m688.8 657.4c0-1 3-1.3 3.9-1.7 6.8-2.6 9-3 16-4 3.3-.5-5.3 10.8-10 15.6-4.7 4.9-9.9 8.5-15.8 7.4-2.6-.5-5.8 1.3-6.4 2.3-3.5 6.3-9 6.5-10.1 6.3-3.6-.9-8.9-8.6-9.8-17.4-.2-1.6-.6-2.8 1-2.1 4.1 1.5 8.6 2.2 13 2 3.1-.3 14.4.3 18.1-5 .3-.5.3-2.2.1-3.4zm-239.8-107c1.3-3-6-11.5-9.4-14.4-3.3-2.9-4.4-5.1-8.3-3.3-1.6.9-3 2-4.1 3.4-2.4 2.7-1.9 4.5-3 8-11.4 0-16.9 4.9-21.7 14.5-1 2-7.3 14.4-5.3 15.8 2 1.3 12.3-5.6 14.2-7 12-9.5 9.7-9.6 19.9-13 2-.8 4.2-2.8 6.2-3.1 4.3-.8 7.2-1.3 11.6-.9" fill="#dedaf3"/><path d="m591.6 550.1-1.8 7-.9 3.5c-.1.6-.3 1.5-.7 1.9a1.5 1.5 0 0 0 -.6 2 1.5 1.5 0 0 0 2 .5c2-1.4 2.4-4.1 3-6.4l2-7.7c.4-2-2.5-2.7-3-.8z" fill="#232980"/><path d="m579.6 559.6a199 199 0 0 1 26.2 22.7c1.4 1.4 3.5-.7 2.2-2.1a203.8 203.8 0 0 0 -26.8-23.2c-1.6-1.2-3.1 1.5-1.6 2.6z" fill="#232980"/><path d="m662.5 445.5c2-1 3.4-3.6 3.7-6 .6-4.1-6-9.4-19-8-8.6 1-15.5 6.7-15.5 6.7s-2.1-6.6-9-8c-3-.7-8.2-1.2-13.2 6.4-.4.6-6.7-13.4-24.5-9.4-4.5 1-9.7 7.3-11.2 12-.6 2-.7 4-.5 5.8.6 5.9 13 13.4 17.4 16.7-2.3.5-3 4-2.4 6.4 1.3 5.1 6 8.5 11 9.6 4.9 1.1 10 .3 15-.6a127 127 0 0 0 15.7-3.3 68 68 0 0 0 7.4-2.7c9.2-4 12.6-16.4 19.5-24z" fill="#f38360"/><path d="m662.5 445.5c.7 3.4.8 4.4-.5 10.7 2.5 2.3 4.7 4.7 6.9 7.3a26 26 0 0 1 -6.9 1.7s-4.1 8.5-7 10c-3 1.3-8.2 0-11-1.5-1 1.6-4.6 4.7-5.7 6.3.8 1.3 5.8 6 6.5 7.3-2.5 3.2-7.8 7.5-11.5 7a27 27 0 0 1 -11.6-6.2c-2.2-2-14.8-22-5.7-26.9 2.2.4 11.2 5.3 11.2 5.3l7-7.4c-1-.7-1.7-1.7-2.2-2.9-1.2-2.8.7-8.7 5.7-9.9 3.5-.8 4.6.7 7.1 3.6.4.3 4.7 3.6 10-4 2.6 1.4 7.7-.4 7.7-.4zm45.1 70c1.1-.8-1.2.7-.7-.6s3.9-5.6 4.5-6.8a7.3 7.3 0 0 1 5-4.4 6.5 6.5 0 0 1 5.4 2l.4.4.7.2c1.1 0 2.3.3 3.3.6a9 9 0 0 1 5.6 7 12 12 0 0 1 -3.2 9.8 11 11 0 0 1 -4.3 2.3c-2 .4-4.1.3-6.2-.2-2-.8-2.2-2.8-2.5-2.8l-.6.1-2 .6h-1.7c-.7-.3-1.4-.8-1.8-1.5-1.2-1.7-2-3.7-2-5.8" fill="#f4d8cb"/><path d="m627.1 491c-4-1.6-8.4-9.2-9.4-13.6-1-4.3-4.7-12.8-1.6-16.2 0 0-1-2.3-8.7-5-21-7.9-46.4-9-59-4.7-17.6 6-36.1 31.3-38.7 34.6 3.3 3.1 12.1 10.5 12.4 10.5.4 0 .9 0 1.2-.2 2-.9 7.3-6.2 8.9-7.7 1.6 0 3 1.4 13.8-3.6a18 18 0 0 0 8.2-8 22 22 0 0 1 3.6-3.4c2.8 3.8 22.5 10.7 24.5 11.5-4.8 6.3-16.7 14.8-16.7 22 17.7 23.4 15.7 23.6 28.9 42.4 4 0 10.5-16.4 21.3-17.5 14-1.6 17.8-13.1 19.2-18.3l1.6 5c2-9.7 2-19.1 2.9-28.8-2.6 2.2-6.8 3.3-12.4 1z" fill="#bcbbe3"/><path d="m707.7 514.4c0-.5-.3-1-.7-1.4a2 2 0 0 0 -1.5-.4c-2.6.2-5 2.6-7.7 2.5-2 0-1.3-3.1-5.6-5.7-5.6-3.3-16-2.9-22.3-.5-6-4.2-7.3-5.9-11.4-12a30 30 0 0 0 -17.8-14.1s.7 6-3 8.4c.2 9.7-5.1 10-6 19.9 1.7 7.2 15.6 15.7 26.7 22.3 8.7 5 27.6 5.2 31.4 4.4s7.8-2.7 10.1-6c.7-1.3 1.5-2.4 2.5-3.4 2.1-1.8 5.6-.8 7.7-2.8-.6-3.1-1.5-8-2.4-11.2z" fill="#bcbbe3"/><path d="m520.9 497.8c-1.8.5-5.2 4.5-5.3 6.3-.1 1.7.2 3.6-.3 5.3a6 6 0 0 1 -5 4.2 7 7 0 0 1 -6.5-2.9c-1.9.8-2.7 2.7-4.8 2.4-5.9-.9-8.7-9.1-7.8-13.5.5-2.4 2.4-3 4.4-4.5 1.9-1.2 4-2 6.2-2.5l6-1.2 3.2-3.4z" fill="#f4d8cb"/><path d="m654.6 457.2.5-.5c.2-.1-.2.2 0 0l.3-.2 1.1-.6.3-.1.6-.2.6-.2h.3c-.5.1-.1 0 0 0h.1-.3a1 1 0 0 1 -.5-.5l-.1-.4v3.5l-.1.3c0 .1-.2.5 0 0-.2.4-.3.8-.2 1.2a1.5 1.5 0 0 0 2.8.3l.5-1.6v-1.3l-.1-1.2v-1.2a2 2 0 0 0 -1-1.9c-.6-.2-1.4-.3-2 0a9 9 0 0 0 -5 2.5 1.5 1.5 0 0 0 0 2.1 1.5 1.5 0 0 0 2 0zm-17.9 5.8c-1 4.6 2.5 9.2 6.4 11.3a1.5 1.5 0 0 0 2.2-1.7c-.1-.4-.3-.7-.6-.9l-1.7-1-.1-.1-.4-.3a10.2 10.2 0 0 1 -1-1.1l-.3-.3-.1-.2-.8-1.2-.1-.3c0-.1-.2-.4 0 0a13.5 13.5 0 0 1 -.6-2s-.1-.3 0 0v-1.2c0-.4 0 0 0 0v-.3a1.5 1.5 0 0 0 -2.9-.8zm-53.1-36.6c-5.3.7-9.4 5.3-10.8 10.3-1.5 5-.6 10.5 3 14.3 1.4 1.3 3.5-.8 2.2-2.2-2.9-3-3.4-7.2-2.4-11.1 1-3.6 4-7.7 8-8.3a1.6 1.6 0 0 0 1.5-1.5 1.5 1.5 0 0 0 -1.5-1.5zm31.6 34.9a26.1 26.1 0 0 0 5.4 24.2c1.3 1.4 3.5-.7 2.2-2.1a23 23 0 0 1 -4.8-21.4c.4-1.9-2.5-2.7-3-.8z" fill="#232980"/><path d="m559.9 466.1-1 3-1.3 3a1.5 1.5 0 0 0 .2 1.1c.2.3.5.6.9.7a1.5 1.5 0 0 0 1.1-.2c.4-.2.6-.5.7-.9l1.3-3 1-2.8a1.5 1.5 0 0 0 -3-.8h.1z" fill="#308ae8"/><g fill="#232980"><path d="m522.8 494.7c-4.6-1.7-8-5.5-12-8.3a1.5 1.5 0 0 0 -1.6 2.7c4.3 3 7.9 6.7 12.8 8.6a1.5 1.5 0 0 0 1.9-1 1.6 1.6 0 0 0 -1-2z"/><path d="m521.4 495.6c-1.8 1.1-3.4 2.5-4.6 4.2-.8.9-1.5 1.8-2 2.7-.6 1-.8 2-.7 3.2 0 1.6.2 3.2-.8 4.7a4.7 4.7 0 0 1 -3.1 2c-1.2.2-2.4.2-3.6 0-1 0-2.1-.3-3-.8-1.5-1.2-3.7.9-2.2 2.1 1.7 1.4 4 1.7 6.1 1.8 2.4.2 4.7 0 6.7-1.6 2.3-2 3-4.6 3-7.5v-1.6c0-.4 0-.3.3-.7l1.4-2c1.1-1.6 2.5-2.9 4.1-3.9 1.8-.8.2-3.4-1.5-2.6z"/><path d="m508 506c-.5.5-1 1-1.3 1.6l-.2.2s-.2.2 0 0a8.9 8.9 0 0 1 -1.5 1.6c.4-.2 0 0 0 0l-.6.4-.4.2s-.4.1 0 0l-.8.2-.9.2h-.7c-.7 0-1.4 0-2.2-.2a1.5 1.5 0 0 0 -.7 3c2.4.5 4.9.2 7.1-.8 1.4-.8 2.7-2 3.6-3.4l.5-.7c.1-.2-.3.3 0 .1v-.1l.3-.3a1.5 1.5 0 0 0 0-2.1 1.5 1.5 0 0 0 -2.2 0zm213 1.3 1.1.7.6.4.3.2.2.1c-.3-.2 0 0 0 .1l.4.3.6.6c.2.2 0 .2-.1-.1v.1l.3.4v.2c.2.2 0 .1 0-.2l.2.5c0 .2 0 .5 0 0v.7c0 .3.1-.4 0-.1l-.1.6v.2c-.2.3 0 0 0 0l-.4.5c-.1.3.3-.3.2-.2.1-.1.3-.3.5-.3h.2-.2.2-.2l-.7-.2-1.8-.6-1-.4s-.3-.2.1 0l-.3-.1-.4-.2-1.2-.6a1.5 1.5 0 0 0 -2.2 1.7c0 .4.3.7.6.9a32 32 0 0 0 7 2.5 2 2 0 0 0 2-1.4c.5-.8.7-1.8.7-2.8a5.7 5.7 0 0 0 -2-4l-1.7-1.2-.6-.4-.2-.1c-.3-.2.3.2 0 0a1.5 1.5 0 0 0 -2 2.1z"/><path d="m717.1 511.7v.9c0 .3.1-.2 0 .1v.3l-.2.7a18.5 18.5 0 0 1 -7.2 9 1.5 1.5 0 0 0 -.5 2 1.5 1.5 0 0 0 2 .6 22 22 0 0 0 7-7.2c1.3-2.2 2.3-4.7 1.9-7.3a1.5 1.5 0 0 0 -1.9-1 1.6 1.6 0 0 0 -1 1.9z"/><path d="m705.7 514.7a57.8 57.8 0 0 1 3.4 10.6 1.5 1.5 0 0 0 2.1.3 1.5 1.5 0 0 0 .5-1.7c-.8-3.7-1.9-7.3-3.4-10.8a1.5 1.5 0 0 0 -2-.5 1.5 1.5 0 0 0 -.6 2zm18.1 4.5a88.6 88.6 0 0 1 7.7-.8 1.5 1.5 0 0 0 0-3c-2.8.1-5.7.4-8.5.8a1.5 1.5 0 0 0 -1 1.9 1.6 1.6 0 0 0 1.9 1h-.1zm-2.4 5.2 6.8-.5a1.5 1.5 0 0 0 1-2.5c-.2-.3-.6-.5-1-.5-2.3 0-4.5.3-6.8.5a1.5 1.5 0 0 0 -1.5 1.5 1.5 1.5 0 0 0 1.5 1.5z"/><path d="m709 523.5a17.7 17.7 0 0 1 -4.9 2.9c-.9.2-1.8.6-2.6 1-.6.6-1 1.3-1.4 2a12.5 12.5 0 0 1 -7 5.2c-1.8.6-1 3.5.9 3 3.4-1 6.3-3.2 8.4-6.1.3-.5.6-1.2 1-1.6h.1l.7-.3 1.5-.6c2-.8 3.8-2 5.5-3.3 1.4-1.3-.7-3.4-2.2-2.1zm-72.1-72.2a37.3 37.3 0 0 0 2 4.4l.8-2.1h-.3.4-1.3.4l-1.6-.2h-1.5a1.5 1.5 0 0 0 -.4 2.7l.4.2h.8-.4 1.2-.4a8 8 0 0 0 3.5.1 1.5 1.5 0 0 0 .9-2.2l-1.4-2.7.2.3-.5-1.3a1.5 1.5 0 0 0 -1.2-1.2 1.5 1.5 0 0 0 -1.7 2z"/></g><path d="m657.5 450.1c.4.4.8.6 1.3.9l1.3.6.3.1.5.2h.6a1.5 1.5 0 0 0 1.1-1.2v-.6c-.1-.4-.4-.7-.7-1a38.4 38.4 0 0 1 -2.5-1.3l.3.3c-.3-.3-.7-.5-1-.5a1.5 1.5 0 0 0 -1.1 2.6h-.1z" fill="#f48460"/><path d="m522.2 498c2.4.7 4.3-1.4 5.9-2.8 1.4-1.1 2.7-2.4 3.8-3.7a1.6 1.6 0 0 0 0-2.2 1.5 1.5 0 0 0 -2 0c-1.1 1.3-2.3 2.4-3.6 3.5l-1.8 1.6-.3.3-.2.1-.2.1-.4.3c-.4.2.3-.1-.1 0h-.2c.2 0 .2 0 0 0h-.7a1.5 1.5 0 0 0 -1.3 1 1.5 1.5 0 0 0 1.1 2v-.1z" fill="#232980"/><path d="m490.7 560.8c3.2 8.8 8.9 16.3 15.5 22.8a147.5 147.5 0 0 0 36.2 25.7c8 3.8 17 6.4 26 6a28 28 0 0 1 8 .8c2.9.8 5.7 2 8.3 3.3 5.1 2.6 10 6 15.6 7.6a37 37 0 0 0 17.7-.5 84.1 84.1 0 0 0 22.6-8.4 1.5 1.5 0 0 0 -1.5-2.6c-5.4 3-11.1 5.3-17 6.9-5.8 1.5-12.2 3-18.2 2.2-5.3-.6-10.1-3.7-14.8-6.3a43.3 43.3 0 0 0 -16.9-6c-3.3-.3-6.7 0-10-.3-4.8-.6-9.4-1.8-13.9-3.6-6.7-2.6-13-6-18.9-10.2-6-4.1-11.9-8.6-17.4-13.5a67.7 67.7 0 0 1 -18.4-24.8c-.6-1.8-3.5-1-2.9.8z" fill="#f5cf6e"/><path d="m419 562.9c4.5-4 9.6-7 15.2-9 4.3-1.7 9.3-3.2 14-2.5 1.8.3 2.6-2.6.7-3-5.2-.7-10.6.7-15.5 2.5-6 2.2-11.6 5.6-16.5 9.8-1.5 1.3.7 3.4 2.1 2.1zm167.6-22.9a93.5 93.5 0 0 1 6.2 10.6 1.5 1.5 0 0 0 2.2-2 91.8 91.8 0 0 0 -5.8-10 1.5 1.5 0 0 0 -2-.6 1.5 1.5 0 0 0 -.5 2zm66.4-73.4a6 6 0 0 0 2 4l1 .8c.2.3.6.4 1 .4a1.5 1.5 0 0 0 1.5-1.5 1.4 1.4 0 0 0 -.4-1l-1.6-1.5.3.3c-.3-.3-.4-.6-.6-1l.2.4-.4-1.2v.4-.2c0-.4 0-.7-.4-1-.2-.3-.6-.5-1-.5s-.8.2-1 .5a1.5 1.5 0 0 0 -.5 1zm-71.2 20.8 4.5 1.6 1 .4.5.2h.2l1.8 1a1.5 1.5 0 0 0 2-.5 1.6 1.6 0 0 0 -.5-2c-1.2-.9-2.6-1.5-4-2l-4.7-1.6a1.5 1.5 0 0 0 -1.8 1 1.5 1.5 0 0 0 1 1.9z" fill="#232980"/><path d="m1031 487.2c-1.6 8.3-2.9 16.6-4 25 6.1.3 37.7 3.6 38.3 2.9.3-.4 2.3-17.3 2.1-25.4-9.4-.2-36.5-2.5-36.5-2.5z" fill="#fff"/><path d="m974.1 600.1a156.1 156.1 0 0 1 33.2-19.6c1.8-.7.3-3.3-1.5-2.6a156 156 0 0 0 -33.2 19.6 1.6 1.6 0 0 0 -.6 2 1.5 1.5 0 0 0 2.1.6zm7.7 9.3c10-6.7 20-13.2 30.3-19.3a1.5 1.5 0 0 0 .5-2.1 1.5 1.5 0 0 0 -2-.5 639 639 0 0 0 -30.3 19.3c-1.6 1 0 3.7 1.5 2.6zm6.5 8.8c9.5-6.9 19.5-13.2 29.8-19a1.5 1.5 0 0 0 .4-2c-.1-.4-.5-.6-.8-.7-.4-.1-.8 0-1.2.1a315.2 315.2 0 0 0 -29.7 19c-1.6 1.1-.1 3.8 1.5 2.6zm5.5 11.7 32-22.2c1.6-1.1 0-3.7-1.5-2.6l-32 22.2c-1.6 1-.1 3.7 1.5 2.6zm6.5 10.9 32.8-24.5c1.5-1.1 0-3.8-1.5-2.6l-32.9 24.5c-1.5 1.1 0 3.7 1.6 2.6z" fill="#d7d7ef"/><path d="m786.7 598a507.4 507.4 0 0 0 -27.4 17.3c9.5 3.4 20 1.6 30-.2a10 10 0 0 0 3.3-1c2.3-1.4 4.7-1.5 5.4-4.1 2.1 0-1-1.6 1-1l-3 9c2.6.3 5.2.5 7.9.5.5 0 1-.2 1.4-.5.4-.4.7-1 .8-1.5 1.8-5.6 3-11.3 3.8-17a157 157 0 0 0 -20.8-2.6l-2.4 1.2zm31.9 47.7a73.3 73.3 0 0 1 -9 10.5 13 13 0 0 0 5.6 4.2c.5.2 1 .3 1.4.2.4-.2.8-.4 1-.8l6.3-6.5 1.5 11.1c.2 3.5 1.5 6.9 3.5 9.7 2.1 3.5 4.3 7 7.3 9.5l3.9-21.8a57 57 0 0 1 3.1-12.2c-6.6-2.7-13.4-5-20.2-6.8" fill="#bcbbe3"/><path d="m946.5 511.8c-5.5 13.6-16.3 25.6-23.7 38.4-4.7 8.1-6.1 21.2-10.2 29.7a80.2 80.2 0 0 1 -25.3 29.8c-4.1 3-10.7 9.8-14.6 13a62.3 62.3 0 0 0 -22.5 32.3h-.7l-38.8-10.5c-.7-.2-1.5-.5-1.6-1.2-.1-.4 0-.8.2-1.2l5.7-13.3a73.5 73.5 0 0 1 10.4-18.7c4.3-5.1 10-9.1 14.9-13.8 4.3-4.3 8.3-8.8 12-13.7 9.7-12.3 33.3-26 40.8-44-14.3 9.2-37 32.3-51.3 41.6-3.6 2.4-21.6 24.6-25.7 25.7-4.2 1-14.4-1.5-15.8-1.8a358 358 0 0 1 -26-7.3c-.5-.1-1-.4-1.5-.8-1.4-1.5.6-3.7 2.3-4.8 16.4-11.3 24.2-30.5 37.1-45.4 2.2-2.6 4.8-4.9 7.6-6.8a41.5 41.5 0 0 1 23.3-4.6c5.6.1 11.5.5 16.3-2.2 5.3-3.1 5.6-12.3 9.3-17 4.8-6 11.7-10 19.3-10.9 8-1 19-1.8 24.3-7.5 0 0 21.7 12.4 34.2 15z" fill="#8ba3a5"/><path d="m1078.8 403.4c-1.5-3.6-8.8 1.5-11.3.9h-.1a13 13 0 0 1 2.1-1.2c.9-.5 1.7-1 2.6-1.3 1.7-.8 4.2-1.5 5.4-3 .6-.9 1.2-1.4 1-2.6-.9-4-11 2.8-13.3 4.4.6-.6 6-4.5 6.5-5.1 1.1-1.2 5.5-4.6 4.5-6.9-1.2-2.8-4.5.4-5.7 1.4l-4.5 3.7c-.6.4-2.3 2.2-3 2.6-1.5 1.2 2-3.8 2.2-4.3 1.3-2.4 4.2-5.3 3-7.5-2.9-4.8-7.8 5.7-9.2 7.5-1.3 1.8-4.6 6.3-7.2 5-1.2-.6-1.7-3.2-2-4.4-.4-1.3-.9-5-2.2-5.7-5.1-2.6-2.6 9.2-2.6 9.8.4 4.6-4.3 16 2.8 18 1.6.7 3.4.7 5 .1 2.6-.8 5-2.7 7.6-3.7 2.3-.8 4.6-1.5 7-2 1.7-.4 13.2-1.5 11.4-5.7zm-77.8-33.8c-2.5-.5-5.5 1.6-7.7.2-4-2.7 7.8-12.6 8.8-15.2.5-1.3.6-3.6-1.5-3.8-2-.2-4.2 3.4-5.5 4.6-.2.3-3.7 3.7-3.6 3.8-.2-.2.6-2.6.6-2.8.8-2.1 1.8-4.2 2.8-6.3.6-1.3 2-3.4 1-4.9s-1.9-.9-3 0c-1.6 1.2-2.6 3.6-3.5 5.4l-.6.9c.2-1.2.4-2.5.4-3.7 0-1.8-.1-3.8-2.5-3.5-2.3.2-2.8 3.4-3.2 5.2l-.4 3.2-.3 2.8-.6 1.6c-.4-1.6 0-3.8 0-5.4 0-1.7.7-5.4-1.7-6-1.8-.4-2.9 1.5-3.3 3-.6 2.1.1 5.7.2 8 .2 3.6.1 7.2-.3 10.8-.6 4.2-2.2 7.6.3 11.4 1.4 2.3 3.6 2.4 6.3 2a17 17 0 0 0 6.2-2.2c3.2-1.8 5.8-2.1 9.4-2.6 2.2-.3 4.8-.7 5.2-3.3.5-2-1.5-2.9-3.5-3.2z" fill="#c58167"/><path d="m906 501.6a22.2 22.2 0 0 1 4-27.8c2-1.7 4.4-3 6.2-5 4.6-4.7 5.5-11.8 6.5-18.3a36.9 36.9 0 0 1 8-20.2c3-3.2 7.2-5.4 10.2-8.8 6.8-7.8 6.8-21 15.8-26.2 2-1.2 4.5-1.8 6.6-2.9 3.7-1.9 6.4-5 7.8-8.9.7-2 3.2-7.6 3.2-7.6l12.9 4.8a8 8 0 0 1 -.1 2.3c-1.5 5-6.9 8.1-7.6 13.2-.2 1.8 0 3.6.2 5.4.9 11.7-7.3 22-12.6 32.4a4.9 4.9 0 0 0 .3 6.2c2.7 4 5.6 8 8.8 11.6.7.9 1.6 1.6 2.7 2 1.7.5 3.4-.4 4.9-1.3 8.5-5.2 16.2-11.9 22.5-19.6 3.7-4.6 7.4-9.8 13-11.3 3.2-.9 6.7-.5 9.3-2.3 1.7-1 2.7-2.8 3.9-4.4 2.8-3.8 6.5-7 10.7-9.2 3 0 9.9 8.3 9.9 8.3a75.7 75.7 0 0 1 -6.1 8c-1.5 1-3 2-4.8 2.6 0 0 .1 2.5.3 3.7 1.1 6.2-1.7 12.6-6 17.2-4.4 4.6-10 7.7-15.7 10.3-3.3 1.6-6.7 3-9.6 5.3-4.9 4-7.6 9.9-11.7 14.5-8.7 9.7-22.6 13.4-31.1 23.2-5.6 6.5-9.2 15.8-17.5 18a24 24 0 0 1 -8.7 0c-13.4-1.5-36.3-15.2-36.3-15.2z" fill="#f2c05f"/><path d="m980.5 431.8a8.2 8.2 0 0 0 -7.9-1.3c-2.7 1-5.1 2.4-7.4 4.2-4.2-2.3-8.3-2.6-10.7 3.5-.8 2.1.2 5.6 1.7 7.2-1.4 4.7-2.9 10-1.2 14.6a12 12 0 0 0 6 6.6c6 3 13.4 1 17.5-4.7 2.3 1.4 5.5 2.4 7.6.7 2-1.7 4.7-3.5 4.3-6.4-.2-1-3.8-6.1-3.8-6.1s2.6-3 3.2-4.6a10 10 0 0 0 -1.9-9c-2-2.4-7.4-4.7-7.4-4.7z" fill="#c58167"/><path d="m952 468.9c-4.3 6-10.3 10.2-16.3 14.5a25.8 25.8 0 0 0 -11.6 27c.4 2 3.3 1.1 3-.8a23 23 0 0 1 7.5-21.5c3.4-3 7.3-5.3 10.9-8.2 3.4-2.7 6.5-6 9-9.5 1.2-1.6-1.4-3.1-2.5-1.5z" fill="#308ae8"/><path d="m1006 452.4c-1.3-3-4.5-4.6-5.7-7.3-1-2.4-.3-5.4-1.4-8a10.5 10.5 0 0 0 -10.3-6.5 12 12 0 0 0 -8.6-10.4c-3.2-1-6.2-.4-9.4-.3-4.4.2-5.4-2-9.2-3.4-5-1.7-12.6.8-15.7 5.2-2.4 3.5-1.3 7.4.8 10.6-3.5 1.2-5.8 4.6-4.2 8.5 2.3 5.6 7.5 8.7 12.4 7.4.9-.3 2-3 2-3a5.6 5.6 0 0 1 -2-4c-.2-3.7 2.2-8.6 9.7-5a1.6 1.6 0 0 0 1.5.2c4.2-2.2 7.6-3.5 11.6-5.9 4.6 2.5 11.4 7.3 11.1 13.3-.1 3.2-2.7 4-2.5 7 .3.7 3.2 3.2 3.2 5.4 0 4.7-2 6.3-5.3 6.4-1.1.1-5.2-1.4-5.2-1.4l-4 4c-.6.6-.2.7.5 1.1 4.9 2.5 10.2 2 13.2-2.6 4.6 2.5 10.3 3.3 14.7-.4a9.4 9.4 0 0 0 2.7-11z" fill="#20267f"/><path d="m966.4 442.2a19.4 19.4 0 0 1 2.8-.9h2c-.4-.1 0 0 0 0h.5l.3.1c-.2 0 .2.1.2.2h.2c.5.4.4 0-.4-1.2l.7-1a1.5 1.5 0 0 0 -.6 2.1 1.5 1.5 0 0 0 2 .6 1.6 1.6 0 0 0 .7-2.1c-.3-.5-.7-1-1.2-1.1a7 7 0 0 0 -2.7-.7 12 12 0 0 0 -5.2 1.1 1.5 1.5 0 0 0 .8 3z" fill="#232980"/><path d="m969.5 440.5a4.9 4.9 0 0 0 -1.6 2.7l-.1.4v.8c0 .4 0 .7.2 1a1.7 1.7 0 0 0 1.4.9c.6 0 1.2-.3 1.7-.7a7.8 7.8 0 0 0 2.3-3.6c.1-.4 0-.8-.2-1.1-.2-.4-.5-.6-.9-.7a1.6 1.6 0 0 0 -1.8 1l-.2.5.2-.4-.9 1.5.3-.4-1 1.1.3-.2-.2.1.3-.1h-.1l.4-.1h-.1.4l.3.2.3.2.2.3.1.3v.3-.4.3l.3-1-.2.4.5-.8-.2.3.5-.6c.3-.3.5-.7.5-1 0-.5-.2-.9-.5-1.2-.2-.2-.6-.4-1-.4h-.4c-.3 0-.5.2-.7.4z" fill="#232980"/><path d="m1040.5 421.5a138 138 0 0 0 9.1-8.3 1.5 1.5 0 0 0 0-2.2 1.5 1.5 0 0 0 -2.1 0c-3 3-6 5.7-9.1 8.4a1.5 1.5 0 0 0 0 2 1.6 1.6 0 0 0 2 0zm-63.4-33.9 2-3.3 1-1.6.5-.8.3-.4.1-.2c.1-.2.1-.2 0 0l-1.1.5-1-.5-.5-1v-.3l.4-.7 1.8-.2a1.5 1.5 0 0 0 -2 .5 1.5 1.5 0 0 0 0 1.7l.5.4a1.6 1.6 0 1 0 .5-3 1.7 1.7 0 0 0 -1.2.9l-1.3 2-2.6 4.4a1.5 1.5 0 0 0 .5 2 1.5 1.5 0 0 0 2-.5h.1z" fill="#308ae8"/><path d="m979 446.6.1.1s.2.2 0 0c-.2-.1 0 0 0 0l.2.1a5.8 5.8 0 0 1 .8.9s.2.2 0 0c-.2-.3 0 0 0 0l.4.6.4.7v-.1.2l.2.3a6.4 6.4 0 0 1 .2 1.1v-.1.2a1.5 1.5 0 0 0 1.5 1.5 1.5 1.5 0 0 0 1.5-1.5 9 9 0 0 0 -3.9-6.7 1.5 1.5 0 0 0 -2 .5 1.6 1.6 0 0 0 .6 2.1z" fill="#232980"/><path d="m979 445.2a14 14 0 0 0 -2.6 3.8c-.3.6-.5 1.2-.4 1.8a1.8 1.8 0 0 0 1.8 1.4 3.5 3.5 0 0 0 2.5-1.5c.6-.7 1-1.5 1.5-2.3a1.5 1.5 0 1 0 -2.6-1.5l-1 1.5.3-.3-1.3 1.4.3-.3-.3.2.4-.2h-.1.4-.1.4-.1l.3.1.3.3v-.1l.2.3.1.3v-.1.4-.2.4-.3.4c.3-1 .9-2 1.5-2.8l-.2.3.8-.9a1.5 1.5 0 0 0 .4-1.7 1.5 1.5 0 0 0 -1.5-.9 1.5 1.5 0 0 0 -1 .5zm-4.5-8.2h.1-.4c.7 0 1.4.2 2 .5l-.3-.1c.6.2 1.2.6 1.7 1l-.3-.3.4.4c.3.3.7.4 1.1.5.4 0 .8-.2 1-.5a1.5 1.5 0 0 0 0-2.1 9.4 9.4 0 0 0 -5.3-2.4 1.5 1.5 0 0 0 -1 2.6l.3.2zm8.1 5.2c.2 0 .3.2.4.3l-.3-.3 1.2 1.2-.2-.3 1 1.7a1.5 1.5 0 0 0 2.7-.4c.1-.4 0-.8-.1-1.2l-1.3-2a8.3 8.3 0 0 0 -1.9-1.6c-.3-.2-.7-.3-1.1-.2a1.5 1.5 0 0 0 -1 2c0 .3.3.6.7.8zm-12.1 6.7-1.9 2.1c-.2.3-.4.7-.4 1l.1.6c0 .2.2.4.3.5a1.5 1.5 0 0 0 2.2 0l1.9-2c.2-.4.4-.8.4-1.2l-.1-.5-.3-.5a1.5 1.5 0 0 0 -2.2 0zm-10.1 4.2a11 11 0 0 0 -.6 2.8c-.2.8-.2 1.6-.1 2.5a4.8 4.8 0 0 0 3 4.3c.9.3 1.8.4 2.7.3 1.1 0 2.7.2 3.4-1a3.1 3.1 0 0 0 -.1-2.7l-1.3-2.3a58 58 0 0 0 -4-4.6 1.5 1.5 0 0 0 -2.1 0 1.5 1.5 0 0 0 0 2.1l3.2 3.7.1.2c.2.2-.1-.2 0 0l.3.4c.3.3.4.6.6 1l.2.4c.1.2 0-.2 0 0l.1.3.2.5s0 .3 0 0a.8.8 0 0 1 .2-.7l.7-.4c.2 0 .2 0 0 0h-3s-.3 0 0 0h-.4c-.3-.1 0 0 0 0l-.3-.2c.3.2 0 0 0 0 0-.1-.2-.3 0-.2 0 .2-.1 0-.2-.1l-.1-.3c0 .1 0 .1 0 0l-.1-.4-.1-.4v-3l.5-1.5a1.5 1.5 0 0 0 -1-1.8 1.6 1.6 0 0 0 -1.8 1z" fill="#232980"/><path d="m953.8 444.8c-3.3 6.8-4.4 15.8 2.2 21.2a18.9 18.9 0 0 0 21.8.6c1.6-1 .1-3.7-1.5-2.6a16 16 0 0 1 -18.2-.2c-5.5-4.3-4.4-12-1.7-17.5.9-1.8-1.7-3.3-2.6-1.5z" fill="#232980"/><path d="m952.8 444.8c-6.4 2.4-13.5 7.4-15 14.5-1.5 6.4 2.9 13.7 10 12.9 4-.5 7.2-3.2 9.5-6.4 1-1.6-1.5-3.1-2.6-1.6-2 2.9-5.2 5.5-8.9 5-3-.4-5-3.3-5.4-6.3-.8-7.3 7.2-13 13.2-15.2 1.8-.7 1-3.6-.8-3z" fill="#232980"/><path d="m954.4 464.7c-1.4 3.3-1.8 7-1.2 10.5a9.5 9.5 0 0 0 5.5 6.8c6 2.8 12.4-.3 16.2-5.2 2.3-3.2 4-7 5-10.8.5-1.8-2.4-2.6-3-.8-1.7 6.1-5 13.9-12.3 14.8a7.8 7.8 0 0 1 -7.5-3 8.6 8.6 0 0 1 -1-5c-.1-2 .2-4 .9-5.8a1.6 1.6 0 0 0 -.6-2 1.5 1.5 0 0 0 -2 .5zm15.6-77.9 10.2 4.8a1.6 1.6 0 0 0 2-.6 1.5 1.5 0 0 0 -.5-2l-10.1-4.8a1.6 1.6 0 0 0 -2.1.6 1.5 1.5 0 0 0 .5 2zm60.8 33.1 6.1 3a38.1 38.1 0 0 1 3.9 2.3h.1l.4.5c1.4 1.3 3.5-.8 2.2-2.2a19.9 19.9 0 0 0 -5-3.2l-6.2-3a1.5 1.5 0 0 0 -2 .5c-.2.3-.3.7-.2 1.1s.3.7.7 1zm11.6-12.6a69.3 69.3 0 0 1 9.6 7.6 1.5 1.5 0 0 0 1.2 0c.2 0 .4-.1.5-.3.1-.1.3-.3.3-.5l.2-.6-.2-.6-.3-.4c-3-2.9-6.3-5.5-9.8-7.8-.3-.2-.7-.2-1-.1-.5 0-.8.3-1 .6a1.5 1.5 0 0 0 .6 2v.1zm-68.4-29.6 11.2 4.9a1.6 1.6 0 0 0 2-.5 1.5 1.5 0 0 0 -.6-2.1l-11-4.9a1.6 1.6 0 0 0 -2 .6 1.5 1.5 0 0 0 .5 2zm78.2 22.2.8 1.3v.2-.2l.2.4a13 13 0 0 1 .5 2v.3-.1 1.1a1.5 1.5 0 0 0 1.5 1.5 1.5 1.5 0 0 0 1.5-1.5c0-2.3-.7-4.6-2-6.5-.1-.4-.5-.6-.8-.7a1.5 1.5 0 0 0 -1.9 1c0 .4 0 .8.2 1.2zm9.1-.7 3.5 5c.3.3.6.6 1 .7.3.1.8 0 1.1-.1.3-.3.6-.6.7-1l-.1-1-3.6-5c-.2-.4-.5-.7-1-.8-.3 0-.7 0-1 .2a1.5 1.5 0 0 0 -.6 2zm-69-30.8c-2.7-.3-5.5.3-8 1.5a1.5 1.5 0 0 0 -.5 2 1.5 1.5 0 0 0 2 .6l.5-.2c.4-.2-.3 0 .1 0l.9-.3 1.7-.5h.4c.2 0 .2 0 0 0h.3l.9-.1h1.8a1.5 1.5 0 0 0 1.5-1.5 1.5 1.5 0 0 0 -1.5-1.5zm-10.6-9.7 4 1a1.5 1.5 0 0 0 1.7-2.1c-.2-.4-.5-.6-.9-.8l-4-1a1.5 1.5 0 0 0 -.8 2.9zm-76.5 144.5a93.4 93.4 0 0 0 37.4 14.5c1.9.3 2.7-2.6.8-2.9a91.2 91.2 0 0 1 -36.7-14.2c-1.6-1-3.1 1.6-1.5 2.6z" fill="#232980"/><path d="m914.1 507.5c-1 .9-2.8 1-4 1.1a27.6 27.6 0 0 1 -11-2c-.8-.3-1.4-.7-2-1.2-.3-.2-.6-.5-.7-.8-.6-1.9-3.5-1.1-3 .8.7 1.5 2 2.8 3.5 3.5a27.7 27.7 0 0 0 13.7 2.7c2-.2 4.1-.6 5.7-2 1.5-1.3-.7-3.3-2.2-2zm19.2 7.2a24 24 0 0 0 -2.6 8.6 13 13 0 0 0 1.4 9 1.5 1.5 0 1 0 2.6-1.5 10 10 0 0 1 -1-7.2c.4-2.5.9-5.1 2.2-7.3a1.5 1.5 0 0 0 -1.7-2.2 1.5 1.5 0 0 0 -1 .7zm-149.7 86c8.4 2.9 17 5 25.7 6.1a1.5 1.5 0 0 0 1.9-1 1.5 1.5 0 0 0 -1-1.9c-8.8-1.2-17.4-3.2-25.7-6.1-1.9-.6-2.7 2.3-.8 3zm25.4 43.6c13.3 3.7 26.6 7.7 40 10.8 2 .4 2.7-2.5.8-2.9-13.4-3-26.7-7-40-10.8a1.5 1.5 0 0 0 -.8 3zm-49-27.3a60.6 60.6 0 0 0 22.6.5 59.6 59.6 0 0 0 16.7-6.7c1.6-1.1 0-3.8-1.5-2.7a45.7 45.7 0 0 1 -37 6c-2-.4-2.8 2.5-.8 2.8zm62 37.7a64 64 0 0 0 4 16c1.8 5 4 10.4 7.7 14.3 1.4 1.5 3.5-.7 2.2-2a37.8 37.8 0 0 1 -7-13.4 60.6 60.6 0 0 1 -3.8-15c-.1-1.9-3.2-1.9-3 0zm-23.4-87.9 40.4 14.8c1.8.7 2.6-2.2.8-3l-40.4-14.6c-1.8-.6-2.6 2.3-.8 3zm30.8 42.2c13 5 27 8.4 39.6 14.8 1.8.9 3.3-1.7 1.6-2.6-12.9-6.5-27-10-40.4-15.2-1.8-.7-2.6 2.2-.8 3z" fill="#232980"/><path d="m716.8 593.4-28.2 20.3a129.3 129.3 0 0 1 -16.7-20.8c10.9-8.6 18.5-13.4 27.6-20.2zm266.3-420.4c9 7.6 17.8 15.5 26.2 23.8 1.4 1.3 3.6-.8 2.2-2.2a457.9 457.9 0 0 0 -26.2-23.6c-1.5-1.3-3.7.8-2.2 2zm7.8-6.5 26.5 24.1c1.4 1.3 3.6-.8 2.1-2l-26.5-24.3c-1.4-1.3-3.5.8-2.1 2.1zm9.6-6.9c9.9 7.1 17.5 16.8 26.6 24.7 1.5 1.3 3.6-.8 2.1-2.1-9.3-8.1-17-18-27-25.2-1.7-1.1-3.2 1.5-1.6 2.6zm7.3-6.5c8.8 8 18 15.3 26.4 23.6 1.4 1.3 3.5-.8 2.1-2.2-8.5-8.2-17.6-15.6-26.4-23.5-1.4-1.3-3.5.8-2.1 2.1zm7-7.7 26.5 24.1c1.4 1.3 3.5-.8 2-2.1l-26.4-24.1c-1.4-1.4-3.6.8-2.1 2zm8-7 26.5 24c1.4 1.4 3.5-.8 2.1-2l-26.5-24.2c-1.4-1.3-3.6.8-2.1 2.2z" fill="#d7d7ef"/><path d="m408.2 209c-7 14.7-13.4 31.7-20.4 46.3l30.8 15.4c8.8-14.2 16-29.2 21.5-44.9a173.6 173.6 0 0 0 -31.3-16.6" fill="#fff"/><path d="m720.5 437.3c9 1.7 17.8 4 26.6 6.4a1.5 1.5 0 0 0 .8-3c-8.8-2.3-17.6-4.6-26.6-6.3-1.9-.4-2.7 2.5-.8 2.9zm2.7-8.7 24.4 5c2 .3 2.7-2.6.8-3l-24.4-4.9c-1.9-.4-2.7 2.5-.8 3zm-4.4 19.1c8.9 1 17.7 2.6 26.4 4.9a1.5 1.5 0 0 0 .8-3c-9-2.3-18-4-27.2-5-2-.2-2 2.9 0 3zm-2.2 8.6 24.4 4.9c2 .4 2.7-2.5.8-2.9l-24.4-5c-1.9-.3-2.7 2.6-.8 3z" fill="#d7d7ef"/><path d="m615 225.7c3.2 14 10.5 26 16.8 38.7a89 89 0 0 0 26.2-13.4 318 318 0 0 0 -17.3-37c-7.6 1.7-25.8 11.6-25.8 11.6z" fill="#fff"/><path d="m855.5 371c8.7 10.9 16.6 22.1 24.6 33.4 1 1.6 3.7.1 2.6-1.5-8-11.5-16.2-23-25-34-1.3-1.5-3.4.7-2.2 2.2zm10.5-6.7 22.1 32.6c1.1 1.6 3.7 0 2.6-1.5l-22-32.6c-1.2-1.6-3.8-.1-2.7 1.5zm-20.7 12.9c8.8 10.6 16.7 22 24.5 33.2 1 1.6 3.7.1 2.6-1.5-8-11.5-16-23.1-25-33.9-1.2-1.5-3.3.7-2 2.2zm-11.3 5.2 25.4 34.7c1.1 1.6 3.7 0 2.6-1.5l-25.4-34.8c-1.1-1.5-3.7 0-2.6 1.6zm-9.9 7.5c8.7 10.7 16.6 22 24.6 33.3 1 1.6 3.7.1 2.6-1.5a619 619 0 0 0 -25-34c-1.3-1.5-3.4.7-2.2 2.2zm-10.1 6.1c8.8 10.6 16.6 21.9 24.4 33.2 1.1 1.6 3.7.1 2.6-1.5-8-11.5-16-23.1-24.9-33.9-1.2-1.5-3.4.7-2.1 2.1zm-11.4 5.2 25.4 34.7c1.1 1.6 3.7 0 2.6-1.5l-25.4-34.7c-1.1-1.6-3.7 0-2.6 1.5z" fill="#eeeff7"/><path d="m308.6 291.5c-23.4 7.4-41 14.4-64.2 22.8 8.9 18.9 13.3 30.5 22.8 47.8 28.8-9.7 41.7-16 64.8-27-8-16-13-29-21.4-44.2z" fill="#fff"/><path d="m283.4 311.5c4.5 8.3 8.5 17 11.7 25.9.7 1.8 3.6 1 3-.8-3.4-9.2-7.4-18-12.1-26.6-1-1.7-3.6-.2-2.6 1.5zm8.6-3.4c4 8.5 8.2 16.9 12.1 25.4.9 1.7 3.5.2 2.7-1.6l-12.2-25.3c-.8-1.8-3.4-.2-2.6 1.5zm8.5-1.7c4.6 7 8.3 14.5 11.2 22.4.6 1.8 3.5 1 2.9-.8-3-8.1-6.8-16-11.5-23.2-1.1-1.6-3.7 0-2.6 1.6zm-27.4 8.9c4.9 8.2 9.1 16.7 12.7 25.4.7 1.8 3.6 1 2.9-.8-3.7-9-8-17.7-13-26a1.5 1.5 0 1 0 -2.6 1.4zm-8.7 3.8c4 8.6 8.6 16.9 12.6 25.4.9 1.8 3.4.2 2.6-1.5-4-8.6-8.6-16.8-12.6-25.4-.9-1.7-3.5-.2-2.6 1.5z" fill="#e9e8f4"/><path d="m914.9 348.7c-1.1-8.2-1.3-16.5-.4-24.7.2-2-2.8-2-3 0-.9 8.5-.7 17 .5 25.5a1.5 1.5 0 0 0 1.8 1 1.6 1.6 0 0 0 1-1.8zm9.8-1c-.6-7.8-1-15.5-1.2-23.3 0-2-3-2-3 0 .2 7.8.6 15.5 1.2 23.3.1 1.9 3.1 2 3 0zm9-.8c-.8-7.6-1.2-15.3-1.2-23a1.5 1.5 0 0 0 -1.5-1.5 1.5 1.5 0 0 0 -1.5 1.5c0 7.7.4 15.4 1.2 23 .2 1.9 3.2 1.9 3 0zm9.3.6-2.2-25.2c-.2-2-3.2-2-3 0l2.2 25.2c.2 2 3.2 2 3 0zm10.3-.2-3.3-26.3c-.2-1.9-3.2-1.9-3 0l3.3 26.4c.2 2 3.2 2 3 0z" fill="#fff"/><path d="m449.3 650.6c1.8 19.3-2.5 50-3.2 50.2-9.6 1.8-50.8 8.2-88 10.2 3-18 4.1-32.2 7.3-49 21-4.3 73.7-12 84-11.4z" fill="#e6e5f4"/><path d="m378.8 641.9c-3.9 18.3-6.2 37.2-8.8 55.7 26.3-1.8 83.5-9.5 83.6-10.7 2-17 5.1-37.7 5.3-54.8-25 2.1-55.5 4.8-80.1 9.8" fill="#fff"/><path d="m442.5 675.8c1-11.1 1.6-22.3 2.6-33.4.1-1.9-2.9-1.9-3 0-1 11.1-1.7 22.3-2.6 33.4-.2 1.9 2.8 1.9 3 0zm-13.7 2.8c1.1-11.3 3-22.5 3.5-33.8.1-2-2.9-2-3 0-.5 11.3-2.4 22.5-3.5 33.8-.2 2 2.8 2 3 0zm-13.8 1.3c1.1-11.1 2.8-22 4.4-33 .3-1.9-2.6-2.7-2.9-.8-1.6 11.3-3.3 22.5-4.6 33.8-.2 1.9 2.8 1.9 3 0zm-12.6 2c1.3-10.8 3.2-21.6 5-32.3.2-2-2.7-2.8-3-.8-1.8 11-3.7 22-5 33-.2 2 2.8 2 3 0zm-12.4 1.1c1.4-10.9 3.3-21.6 5-32.4.4-1.9-2.5-2.7-2.8-.8-1.9 11-3.7 22-5.1 33.1-.3 2 2.8 2 3 0z" fill="#d7d7ef"/><path d="m216.2 107a12.6 12.6 0 0 0 -4.3-1.4l-1-.2a1.7 1.7 0 0 0 -1.4.7 2.4 2.4 0 0 0 -.2 2.2 9.3 9.3 0 0 0 2 3.7 9 9 0 0 0 2.3 2 1.5 1.5 0 0 0 2.3-1 1.5 1.5 0 0 0 -.4-1.2l-.4-.4-.4-.2-.1-.1h-.1l-.2-.1-.3-.3a11 11 0 0 1 -.5-.6s-.2-.3 0 0l-.3-.4a9 9 0 0 1 -.4-.7l-.2-.3c0-.2-.1-.4 0-.1.1.2 0 0 0 0l-.3-.8v-.6c0-.1 0-.1 0 0v.3l-.4.7-.2.1-.8.3h.4-.1.5l1.2.3.5.2.2.1c.3.1-.2-.1 0 0l1.1.6a1.5 1.5 0 1 0 1.5-2.6v-.1zm-8.4-8.8.5-.8-.2.3 1-1-.3.2a5 5 0 0 1 1.1-.6l-.4.1.8-.2h-.4.6-.4.3-.3.3l-.3-.2.1.2a1.5 1.5 0 0 0 2.2 0 1.5 1.5 0 0 0 0-2.1c-1.2-1.3-3-1-4.4-.3a7 7 0 0 0 -2.8 2.9 1.5 1.5 0 0 0 2.6 1.5z" fill="#232980"/><path d="m210 96.2c.1 1 .2 2 .1 3a1.5 1.5 0 0 0 2.6 1.2c.3-.3.4-.7.4-1.1a16.8 16.8 0 0 0 -.2-3.7c0-.2-.2-.3-.3-.5a1.5 1.5 0 0 0 -2.6 1zm264.8 470.2c.3 8.7 6.4 15.5 12.1 21.4 6.4 6.6 13.4 12.6 21 17.8 1.6 1 3.1-1.5 1.5-2.6-7-5-13.7-10.5-19.7-16.7-5.4-5.4-11.6-11.8-12-19.9 0-2-3-2-3 0zm159 71.4a62 62 0 0 0 16.4-7.8c1.6-1 .1-3.6-1.5-2.6a59.3 59.3 0 0 1 -15.7 7.6c-1.9.6-1 3.5.8 3z" fill="#232980"/></g></svg>