<svg fill="none" height="20" viewBox="0 0 20 20" width="20" xmlns="http://www.w3.org/2000/svg"><path d="m16.2245 5.97355c0-.07503 0-.0769-.0787-.0769-.1848-.00149-.3691-.01716-.5515-.04689-.6621-.10129-2.8136-1.22672-3.1756-3.07056-.0434-.22739-.0722-.45732-.0863-.68839 0-.08816 0-.08815-.0881-.09003h-2.58102c-.17069 0-.14631-.02063-.14631.15006v10.93916c.00285.1357-.00656.2713-.02813.4052-.05155.3147-.16622.6158-.33711.885-.17088.2693-.39446.5013-.65729.6819-.26282.1807-.55947.3063-.8721.3693-.31262.0631-.63477.0623-.94708-.0023-.1898-.0455-.37502-.1083-.55334-.1876l-.04501-.0394c-.06009-.0495-.12269-.0958-.18758-.1388-.77842-.5383-1.14793-1.2868-1.03539-2.2227.11254-.936.66025-1.5944 1.55872-1.9264.26791-.0988.55341-.141.83845-.1238.18511.0066.36886.0343.5477.0825.0619.0188.09567 0 .09942-.0694 0-.0225 0-.045 0-.0694 0-.6546-.02439-2.0839-.02814-2.08765 0-.18757 0-.37514 0-.56271 0-.0544-.02625-.06378-.07315-.0694-.69702-.08769-1.40461-.03197-2.07931.16373-.6747.19571-1.30228.52727-1.84419.97433-.54191.44705-.98672 1.0002-1.3071 1.6254-.32039.6252-.50959 1.3093-.55599 2.0102-.01687.2675-.01311.5359.01125.8028.06046.7043.26617 1.3884.60418 2.0092.338.6208.80097 1.1649 1.3597 1.5979.08093.0738.17109.1369.26823.1875l.12754.1126c.13535.1012.27977.1898.43142.2644 1.0413.5247 2.22845.6851 3.37165.4556s2.17648-.8357 2.93448-1.7217c.8126-.936 1.2549-2.1368 1.2436-3.3763.0094-1.8157 0-3.63135 0-5.43954 0-.04314-.0262-.10505.0225-.12755.0488-.02251.0751.03376.1088.05627.6693.44191 1.4127.7596 2.1946.93786.4574.10864.9255.16527 1.3956.16881.15 0 .1688.00001.1688-.15568.0056-.65275-.0282-2.41593-.0282-2.58662z" fill="#fff"/></svg>